<svg width="54" height="89" viewBox="0 0 54 89" fill="none" xmlns="http://www.w3.org/2000/svg">
<path d="M14 11V2L47 18.5V28L14 11Z" fill="#E43C5E"/>
<path d="M50.5 17L47 18.5V28L50.5 26.5V17Z" fill="#030332"/>
<path d="M54 31.5L25.5 17L26 68L54 84V31.5Z" fill="url(#paint0_linear_197_214)"/>
<path d="M51.5 76L43 71V50.5L52 55L51.5 76Z" fill="url(#paint1_linear_197_214)"/>
<path d="M52 50.5L43.5 46V27L52 31.5V50.5Z" fill="url(#paint2_linear_197_214)"/>
<path d="M39 44L29 38.5V19.5L39 25V44Z" fill="url(#paint3_linear_197_214)"/>
<path d="M39 69L28.5 63L29 43.5L39 48.5V69Z" fill="url(#paint4_linear_197_214)"/>
<path d="M21.5 70.5L0 60V40.5L4 42.5L21.5 51.5V70.5Z" fill="#22295E"/>
<path d="M35 45L21.5 51.5V70.5L35 64V45Z" fill="url(#paint5_linear_197_214)"/>
<path d="M15 34.5L0 40.5L21.5 51.5L35 45L15 34.5Z" fill="url(#paint6_linear_197_214)"/>
<path d="M17 0L14 2L47 18.5L50.5001 17L17 0Z" fill="#4F73F1"/>
<path d="M34 72.5V79.5L49.5 88.5L54 84L34 72.5Z" fill="url(#paint7_linear_197_214)"/>
<path d="M16.5 52L4.5 46V58.5L16.5 65V52Z" fill="url(#paint8_linear_197_214)"/>
<path d="M9.5 42L6.5 40.5L15 37L18 38.5L9.5 42Z" fill="#293761"/>
<path d="M15 45L12 43.5L20.5 40L23.5 41.5L15 45Z" fill="#293761"/>
<path d="M20.5 48L17.5 46.5L26 43L29 44.5L20.5 48Z" fill="#293761"/>
<path d="M21.5 70.5L0 59.5V78.5L21.5 89V70.5Z" fill="#13154E"/>
<path d="M35 64L21.5 70.5V89L35 81V64Z" fill="url(#paint9_linear_197_214)"/>
<path d="M22 9.5L17.5 7V11.5L22 14V9.5Z" fill="#EDDDCF"/>
<path d="M34.5 15L30 12.5V17L34.5 19.5V15Z" fill="#EDDDCF"/>
<path d="M43.5 20L39 17.5V22L43.5 24.5V20Z" fill="#EDDDCF"/>
<path d="M24 14V12.5L28.5 14.5V16L24 14Z" fill="#EDDDCF"/>
<defs>
<linearGradient id="paint0_linear_197_214" x1="41" y1="25" x2="39.75" y2="84" gradientUnits="userSpaceOnUse">
<stop stop-color="#6253FC"/>
<stop offset="1" stop-color="#2D238E"/>
</linearGradient>
<linearGradient id="paint1_linear_197_214" x1="51" y1="54" x2="42.5" y2="72.5" gradientUnits="userSpaceOnUse">
<stop stop-color="#E2ECEF"/>
<stop offset="1" stop-color="#6CDAFD"/>
</linearGradient>
<linearGradient id="paint2_linear_197_214" x1="52" y1="32.2755" x2="41.1748" y2="44.9208" gradientUnits="userSpaceOnUse">
<stop stop-color="white"/>
<stop offset="1" stop-color="#C0E8FF"/>
</linearGradient>
<linearGradient id="paint3_linear_197_214" x1="39" y1="25" x2="28" y2="39.5" gradientUnits="userSpaceOnUse">
<stop stop-color="white"/>
<stop offset="1" stop-color="#C0E8FF"/>
</linearGradient>
<linearGradient id="paint4_linear_197_214" x1="37.8333" y1="47" x2="30.1944" y2="66.397" gradientUnits="userSpaceOnUse">
<stop stop-color="#E2ECEF"/>
<stop offset="1" stop-color="#6CDAFD"/>
</linearGradient>
<linearGradient id="paint5_linear_197_214" x1="35" y1="45" x2="21.5" y2="70" gradientUnits="userSpaceOnUse">
<stop stop-color="#4135CC"/>
<stop offset="1" stop-color="#201A66"/>
</linearGradient>
<linearGradient id="paint6_linear_197_214" x1="35.5" y1="45" x2="0.500001" y2="40.5" gradientUnits="userSpaceOnUse">
<stop offset="0.555924" stop-color="#67E7FE"/>
<stop offset="1" stop-color="#3E8A98"/>
</linearGradient>
<linearGradient id="paint7_linear_197_214" x1="44.5" y1="79" x2="43.5" y2="80.5" gradientUnits="userSpaceOnUse">
<stop stop-color="#0E0A52"/>
<stop offset="1" stop-color="#23255A"/>
</linearGradient>
<linearGradient id="paint8_linear_197_214" x1="16" y1="52" x2="4.5" y2="58.5" gradientUnits="userSpaceOnUse">
<stop stop-color="#6774D0"/>
<stop offset="0.514391" stop-color="#343D83"/>
<stop offset="1" stop-color="#353B6A"/>
</linearGradient>
<linearGradient id="paint9_linear_197_214" x1="23" y1="84.5" x2="37" y2="65.5" gradientUnits="userSpaceOnUse">
<stop stop-color="#20236F"/>
<stop offset="1" stop-color="#3D43D5"/>
</linearGradient>
</defs>
</svg>
