<svg xmlns="http://www.w3.org/2000/svg" width="11" height="15" viewBox="0 0 11 15" fill="none">
  <path d="M5.51299 14.1871C5.63821 14.1851 5.76136 14.1539 5.87326 14.096C5.98516 14.0381 6.08291 13.9549 6.15922 13.8526L6.16246 13.8476L10.2444 9.64308C10.3242 9.56418 10.3879 9.46967 10.4318 9.36509C10.4757 9.26052 10.4988 9.14797 10.5 9.03405C10.5011 8.92013 10.4801 8.80713 10.4383 8.70165C10.3965 8.59618 10.3347 8.50035 10.2565 8.41979C10.1783 8.33924 10.0852 8.27556 9.98285 8.2325C9.88045 8.18944 9.77073 8.16785 9.66013 8.16901C9.54953 8.17017 9.44027 8.19405 9.33874 8.23925C9.23721 8.28445 9.14546 8.35006 9.06886 8.43224L6.33133 11.252L6.33133 1.05564C6.33289 0.942176 6.31253 0.829522 6.27146 0.724226C6.23038 0.618929 6.16939 0.523093 6.09204 0.442285C6.01469 0.361477 5.92252 0.297312 5.82088 0.253515C5.71925 0.209717 5.61017 0.187164 5.5 0.187164C5.38983 0.187164 5.28076 0.209717 5.17912 0.253515C5.07749 0.297312 4.98531 0.361477 4.90796 0.442285C4.83061 0.523093 4.76963 0.618929 4.72855 0.724225C4.68747 0.829522 4.66712 0.942176 4.66868 1.05564L4.66867 11.252L1.93115 8.43224C1.85454 8.35006 1.76279 8.28445 1.66126 8.23925C1.55973 8.19405 1.45047 8.17017 1.33987 8.16901C1.22927 8.16785 1.11956 8.18944 1.01716 8.2325C0.914754 8.27556 0.821725 8.33923 0.743516 8.41979C0.665306 8.50035 0.603485 8.59617 0.561678 8.70165C0.519872 8.80712 0.498919 8.92013 0.500044 9.03405C0.50117 9.14797 0.524351 9.26052 0.568232 9.36509C0.612113 9.46967 0.675813 9.56418 0.755598 9.64308L4.84241 13.8526C4.92122 13.9582 5.02287 14.0435 5.13929 14.1015C5.2557 14.1596 5.38366 14.1889 5.51299 14.1871Z" fill="#DB4A4A"/>
</svg>