<svg xmlns="http://www.w3.org/2000/svg" width="10" height="15" viewBox="0 0 10 15" fill="none">
<path d="M4.98701 0.187244C4.86179 0.189267 4.73864 0.2204 4.62674 0.278319C4.51484 0.336238 4.41709 0.419446 4.34078 0.521731L4.33754 0.526748L0.255596 4.73125C0.175811 4.81015 0.112113 4.90466 0.0682314 5.00923C0.0243503 5.11381 0.0011681 5.22636 4.30166e-05 5.34028C-0.00108207 5.4542 0.0198729 5.5672 0.0616796 5.67268C0.103486 5.77815 0.165305 5.87398 0.243515 5.95453C0.321725 6.03509 0.414754 6.09877 0.517154 6.14183C0.619554 6.18489 0.729267 6.20647 0.839866 6.20532C0.950466 6.20416 1.05973 6.18028 1.16126 6.13508C1.26279 6.08988 1.35454 6.02427 1.43114 5.94209L4.16867 3.12237V13.3187C4.16712 13.4322 4.18747 13.5448 4.22855 13.6501C4.26962 13.7554 4.33061 13.8512 4.40796 13.932C4.48531 14.0129 4.57748 14.077 4.67912 14.1208C4.78075 14.1646 4.88983 14.1872 5 14.1872C5.11017 14.1872 5.21924 14.1646 5.32088 14.1208C5.42252 14.077 5.51469 14.0129 5.59204 13.932C5.66939 13.8512 5.73037 13.7554 5.77145 13.6501C5.81253 13.5448 5.83288 13.4322 5.83133 13.3187V3.12237L8.56886 5.94209C8.64546 6.02427 8.73721 6.08988 8.83874 6.13508C8.94027 6.18028 9.04953 6.20416 9.16013 6.20532C9.27073 6.20648 9.38044 6.18489 9.48285 6.14183C9.58525 6.09877 9.67828 6.03509 9.75648 5.95454C9.83469 5.87398 9.89652 5.77815 9.93832 5.67268C9.98013 5.5672 10.0011 5.4542 9.99996 5.34028C9.99883 5.22636 9.97565 5.11381 9.93177 5.00923C9.88789 4.90466 9.82419 4.81015 9.7444 4.73125L5.65759 0.521731C5.57878 0.416092 5.47713 0.33085 5.36071 0.272783C5.2443 0.214717 5.11634 0.185427 4.98701 0.187244Z" fill="#6CCA80"/>
</svg>