<svg width="179" height="179" viewBox="0 0 179 179" fill="none" xmlns="http://www.w3.org/2000/svg">
<path d="M89.4974 0C40.1488 0 0 40.1534 0 89.5051C0 138.854 40.1488 179 89.4974 179C138.849 179 179 138.852 179 89.5051C179 40.1508 138.849 0 89.4974 0ZM137.003 22.9499C129.744 32.1585 132.14 49.5566 134.87 69.303C137.251 86.5192 139.714 104.322 135.761 117.182C130.448 134.463 112.721 145.197 89.5 145.197C66.2787 145.197 48.5524 134.463 43.2419 117.182C39.2884 104.322 41.7516 86.5192 44.1329 69.303C46.8624 49.5541 49.2591 32.1585 42 22.9473C55.4043 13.352 71.7966 7.6824 89.5 7.6824C107.203 7.6824 123.598 13.3546 137.003 22.9499ZM89.4974 171.318C44.3839 171.318 7.68152 134.616 7.68152 89.5051C7.68152 64.8728 18.6379 42.7654 35.9137 27.7514C41.155 34.6015 38.8173 51.6616 36.5231 68.2479C34.0266 86.2913 31.4456 104.952 35.8983 119.436C42.2381 140.066 62.7785 152.88 89.5 152.88C116.224 152.88 136.762 140.066 143.102 119.436C147.554 104.949 144.973 86.2913 142.479 68.2479C140.185 51.6616 137.848 34.6041 143.089 27.754C160.365 42.7679 171.318 64.8753 171.318 89.5051C171.318 134.616 134.614 171.318 89.4974 171.318Z" fill="#C3A0E9"/>
</svg>
