<svg width="28" height="28" viewBox="0 0 28 28" fill="none" xmlns="http://www.w3.org/2000/svg">
<path id="Vector" d="M13.7422 0.181396C6.26546 0.181396 0.182617 6.26493 0.182617 13.7421C0.182617 21.2189 6.26546 27.3012 13.7422 27.3012C21.2192 27.3012 27.3025 21.2185 27.3025 13.7421C27.3025 6.26455 21.2192 0.181396 13.7422 0.181396ZM20.9395 3.65848C19.8397 5.05366 20.2028 7.6896 20.6164 10.6813C20.9772 13.2897 21.3504 15.987 20.7514 17.9354C19.9464 20.5535 17.2607 22.1799 13.7425 22.1799C10.2243 22.1799 7.53866 20.5535 6.73409 17.9354C6.13511 15.987 6.50831 13.2897 6.86909 10.6813C7.28263 7.68921 7.64573 5.05366 6.54594 3.65809C8.57678 2.20433 11.0604 1.34534 13.7425 1.34534C16.4247 1.34534 18.9087 2.20472 20.9395 3.65848ZM13.7422 26.1373C6.90711 26.1373 1.34643 20.5768 1.34643 13.7421C1.34643 10.0101 3.00641 6.66067 5.62381 4.38594C6.41792 5.42379 6.06373 8.00852 5.71614 10.5215C5.3379 13.2552 4.94686 16.0824 5.62148 18.2768C6.58201 21.4024 9.69404 23.3438 13.7425 23.3438C17.7914 23.3438 20.9031 21.4024 21.8636 18.2768C22.5382 16.082 22.1472 13.2552 21.7693 10.5215C21.4217 8.00852 21.0676 5.42418 21.8617 4.38633C24.4791 6.66106 26.1387 10.0105 26.1387 13.7421C26.1387 20.5768 20.5776 26.1373 13.7422 26.1373Z" fill="#C3A0E9"/>
</svg>
