<svg width="434" height="141" viewBox="0 0 434 141" fill="none" xmlns="http://www.w3.org/2000/svg">
<g opacity="0.4">
<path d="M118.708 112.834L110.167 120.29L112.08 122.494L120.621 115.038L118.708 112.834Z" fill="#8424A6"/>
<path d="M129.7 97.407L127.813 99.635L136.446 106.984L138.332 104.756L129.7 97.407Z" fill="#8424A6"/>
<path d="M90.1424 96.4825L88.6509 100.498L104.213 106.311L105.704 102.295L90.1424 96.4825Z" fill="#DB74FF"/>
<path d="M146.498 89.3741L151.143 91.1322C150.794 92.0836 148.047 100.6 158.634 105.943L156.403 110.388C144.525 104.391 144.737 94.0168 146.506 89.3665L146.498 89.3741Z" fill="#8424A6"/>
<path d="M99.2241 117.644L96.5107 118.711L100.644 129.283L103.358 128.216L99.2241 117.644Z" fill="#8424A6"/>
<path d="M157.207 63.9969L144.118 75.4185L147.048 78.7945L160.136 67.3729L157.207 63.9969Z" fill="#B67DDB"/>
<path d="M125.415 76.2974L122.702 77.3638L126.834 87.9366L129.547 86.8702L125.415 76.2974Z" fill="#8424A6"/>
<path d="M113.058 81.0324C113.058 82.6307 111.767 83.9322 110.166 83.9322C108.564 83.9322 107.274 82.6307 107.274 81.0324C107.274 79.4341 108.564 78.1326 110.166 78.1326C111.767 78.1326 113.058 79.4341 113.058 81.0324Z" fill="#8424A6"/>
<path d="M165.503 84.6096C165.503 86.5124 163.963 88.0498 162.073 88.0498C160.183 88.0498 158.642 86.5048 158.642 84.6096C158.642 82.7145 160.175 81.1694 162.073 81.1694C163.97 81.1694 165.503 82.7145 165.503 84.6096Z" fill="#8424A6"/>
<path d="M129.019 57.4076C129.019 59.006 127.721 60.3074 126.127 60.3074C124.533 60.3074 123.236 59.006 123.236 57.4076C123.236 55.8093 124.526 54.5078 126.127 54.5078C127.729 54.5078 129.019 55.8093 129.019 57.4076Z" fill="#8424A6"/>
<path d="M102.28 41.98L106.925 43.7382C106.576 44.6896 103.829 53.2063 114.416 58.5493L112.185 62.9942C100.307 56.9967 100.519 46.6228 102.288 41.9724L102.28 41.98Z" fill="#8424A6"/>
<path d="M90.8274 60.3049L88.114 61.3718L92.2477 71.9439L94.9611 70.877L90.8274 60.3049Z" fill="#DB74FF"/>
<path d="M78.0155 88.3467L76.5203 85.8427C77.0288 85.5306 81.3777 82.6232 78.4557 76.2984L81.0969 75.0654C84.3757 82.1589 80.5201 86.855 78.0155 88.3467Z" fill="#8424A6"/>
<path d="M79.8292 102.146L71.2881 109.602L73.2017 111.807L81.7428 104.351L79.8292 102.146Z" fill="#570994"/>
<path d="M57.3117 61.1035L54.5981 62.1699L58.73 72.7427L61.4436 71.6763L57.3117 61.1035Z" fill="#570994"/>
<path d="M82.7552 49.6768L74.2141 57.1328L76.1277 59.3372L84.6689 51.8812L82.7552 49.6768Z" fill="#8424A6"/>
<path d="M168.797 56.7379L167.302 54.2338C167.811 53.9218 172.159 51.0143 169.237 44.6895L171.879 43.4565C175.165 50.5501 171.302 55.2461 168.797 56.7379Z" fill="#570994"/>
<path d="M142.099 47.5824L140.608 51.5979L156.17 57.4108L157.661 53.3953L142.099 47.5824Z" fill="#DB74FF"/>
<path d="M161.177 35.6857C161.177 37.284 159.879 38.5855 158.285 38.5855C156.691 38.5855 155.394 37.284 155.394 35.6857C155.394 34.0874 156.691 32.7859 158.285 32.7859C159.879 32.7859 161.177 34.0874 161.177 35.6857Z" fill="#8424A6"/>
<path d="M35.9802 33.7515L34.094 35.9795L42.7266 43.3288L44.6128 41.1008L35.9802 33.7515Z" fill="#8424A6"/>
<path d="M52.7795 25.7227L57.4244 27.4809C57.0753 28.4322 54.3278 36.949 64.9156 42.292L62.6842 46.7368C50.8061 40.7393 51.0186 30.3654 52.7871 25.7151L52.7795 25.7227Z" fill="#DB74FF"/>
<path d="M55.2296 3.26153L42.1411 14.6831L45.0707 18.0591L58.1592 6.63755L55.2296 3.26153Z" fill="#B67DDB"/>
<path d="M71.7767 20.9583C71.7767 22.861 70.236 24.3985 68.3461 24.3985C66.4563 24.3985 64.9155 22.8534 64.9155 20.9583C64.9155 19.0631 66.4487 17.5181 68.3461 17.5181C70.2436 17.5181 71.7767 19.0631 71.7767 20.9583Z" fill="#570994"/>
<path d="M33.9818 71.3707L32.4902 75.3862L48.0522 81.1992L49.5437 77.1837L33.9818 71.3707Z" fill="#DB74FF"/>
<path d="M32.1201 98.515C32.1201 100.113 30.8222 101.415 29.2284 101.415C27.6345 101.415 26.3367 100.113 26.3367 98.515C26.3367 96.9167 27.6345 95.6152 29.2284 95.6152C30.8222 95.6152 32.1201 96.9091 32.1201 98.515Z" fill="#B67DDB"/>
<path d="M18.595 60.49L17.0999 57.986C17.6084 57.674 21.9573 54.7665 19.0353 48.4417L21.6765 47.2087C24.9553 54.3023 21.0997 58.9983 18.595 60.49Z" fill="#8424A6"/>
<path d="M20.4143 74.2774L11.8745 81.7349L13.7885 83.9389L22.3283 76.4814L20.4143 74.2774Z" fill="#8424A6"/>
<path d="M11.9918 63.2759C11.9918 65.1787 10.4511 66.7161 8.56121 66.7161C6.67134 66.7161 5.13062 65.171 5.13062 63.2759C5.13062 61.3807 6.66375 59.8357 8.56121 59.8357C10.4587 59.8357 11.9918 61.3807 11.9918 63.2759Z" fill="#570994"/>
<path d="M47.9979 118.555L46.5027 116.051C47.0112 115.739 51.3602 112.831 48.4381 106.507L51.0793 105.274C54.3581 112.367 50.5025 117.063 47.9979 118.555Z" fill="#DB74FF"/>
<path d="M38.2982 122.581C38.2982 124.484 36.7575 126.022 34.8676 126.022C32.9777 126.022 31.437 124.476 31.437 122.581C31.437 120.686 32.9702 119.141 34.8676 119.141C36.7651 119.141 38.2982 120.686 38.2982 122.581Z" fill="#570994"/>
<path d="M225.319 35.0311L229.963 36.7892C229.614 37.7406 226.867 46.2574 237.455 51.6003L235.223 56.0452C223.345 50.0477 223.558 39.6738 225.326 35.0234L225.319 35.0311Z" fill="#8424A6"/>
<path d="M227.775 12.5809L214.687 24.0024L217.616 27.3785L230.705 15.9569L227.775 12.5809Z" fill="#B67DDB"/>
<path d="M204.241 21.9622L201.528 23.0286L205.66 33.6014L208.373 32.5349L204.241 21.9622Z" fill="#8424A6"/>
<path d="M184.523 30.2665C184.523 31.8648 183.225 33.1663 181.631 33.1663C180.038 33.1663 178.74 31.8648 178.74 30.2665C178.74 28.6682 180.03 27.3667 181.631 27.3667C183.233 27.3667 184.523 28.6682 184.523 30.2665Z" fill="#8424A6"/>
<path d="M183.362 -7.44624L188.007 -5.68809C187.658 -4.73671 184.91 3.78007 195.498 9.12304L193.267 13.5679C181.389 7.57039 181.601 -2.8035 183.37 -7.45386L183.362 -7.44624Z" fill="#DB74FF"/>
<path d="M126.598 41.0135L125.103 38.5094C125.611 38.1974 129.96 35.29 127.038 28.9652L129.679 27.7322C132.966 34.8257 129.103 39.5217 126.598 41.0135Z" fill="#B67DDB"/>
<path d="M162.219 2.26461L149.133 13.6885L152.063 17.064L165.149 5.64012L162.219 2.26461Z" fill="#DB74FF"/>
<path d="M138.687 11.6545L135.973 12.7209L140.105 23.2937L142.819 22.2273L138.687 11.6545Z" fill="#8424A6"/>
<path d="M118.97 19.9689C118.97 21.5672 117.672 22.8687 116.078 22.8687C114.485 22.8687 113.187 21.5672 113.187 19.9689C113.187 18.3706 114.477 17.0691 116.078 17.0691C117.68 17.0691 118.97 18.3706 118.97 19.9689Z" fill="#DB74FF"/>
<path d="M100.057 8.84401L97.3438 9.91089L101.477 20.483L104.191 19.4161L100.057 8.84401Z" fill="#8424A6"/>
<path d="M25.7683 9.45607L23.0549 10.5229L27.1886 21.095L29.902 20.0281L25.7683 9.45607Z" fill="#DB74FF"/>
<path d="M2.43883 19.7491L0.947266 23.7646L16.5092 29.5776L18.0008 25.5621L2.43883 19.7491Z" fill="#8424A6"/>
<path d="M20.2495 0.340003C20.2495 1.93833 18.9516 3.23982 17.3578 3.23982C15.7639 3.23982 14.4661 1.93833 14.4661 0.340003C14.4661 -1.25832 15.7639 -2.55981 17.3578 -2.55981C18.9516 -2.55981 20.2495 -1.25832 20.2495 0.340003Z" fill="#8424A6"/>
<path d="M89.446 -8.89647L86.7327 -7.82959L90.8664 2.74249L93.5797 1.67561L89.446 -8.89647Z" fill="#8424A6"/>
<path d="M81.7724 -0.17001C81.7724 1.42831 80.4746 2.72981 78.8807 2.72981C77.2869 2.72981 75.989 1.42831 75.989 -0.17001C75.989 -1.76833 77.2793 -3.06982 78.8807 -3.06982C80.4822 -3.06982 81.7724 -1.76833 81.7724 -0.17001Z" fill="#DB74FF"/>
<path d="M125.315 -20.3698L129.96 -18.6117C129.611 -17.6603 126.863 -9.14351 137.451 -3.80054L135.22 0.644321C123.342 -5.3532 123.554 -15.7271 125.323 -20.3774L125.315 -20.3698Z" fill="#570994"/>
<path d="M215.236 52.922L202.146 64.3413L205.075 67.7178L218.165 56.2985L215.236 52.922Z" fill="#DB74FF"/>
<path d="M191.696 62.303L188.982 63.3694L193.114 73.9422L195.828 72.8758L191.696 62.303Z" fill="#8424A6"/>
<path d="M231.785 70.6128C231.785 72.5156 230.244 74.053 228.354 74.053C226.465 74.053 224.924 72.508 224.924 70.6128C224.924 68.7177 226.465 67.1726 228.354 67.1726C230.244 67.1726 231.785 68.7177 231.785 70.6128Z" fill="#8424A6"/>
<path d="M275.687 45.51L272.974 46.5769L277.107 57.149L279.821 56.0821L275.687 45.51Z" fill="#570994"/>
<path d="M262.873 73.566L261.377 71.0619C261.886 70.7499 266.235 67.8425 263.313 61.5177L265.954 60.2847C269.233 67.3782 265.377 72.0742 262.873 73.566Z" fill="#DB74FF"/>
<path d="M253.173 77.5923C253.173 79.4951 251.632 81.0325 249.743 81.0325C247.853 81.0325 246.312 79.4875 246.312 77.5923C246.312 75.6971 247.845 74.1521 249.743 74.1521C251.64 74.1521 253.173 75.6971 253.173 77.5923Z" fill="#B67DDB"/>
<path d="M209.167 -2.71214C209.167 -0.809375 207.627 0.728061 205.737 0.728061C203.847 0.728061 202.306 -0.816986 202.306 -2.71214C202.306 -4.6073 203.839 -6.15234 205.737 -6.15234C207.634 -6.15234 209.167 -4.6073 209.167 -2.71214Z" fill="#570994"/>
<path d="M298.53 1.51969C298.53 3.11801 297.232 4.4195 295.638 4.4195C294.044 4.4195 292.746 3.11801 292.746 1.51969C292.746 -0.0786337 294.044 -1.38013 295.638 -1.38013C297.232 -1.38013 298.53 -0.0786337 298.53 1.51969Z" fill="#8424A6"/>
<path d="M270.835 5.25665L269.339 2.75261C269.848 2.44056 274.197 -0.46687 271.275 -6.79167L273.916 -8.02466C277.195 -0.931145 273.339 3.76488 270.835 5.25665Z" fill="#570994"/>
<path d="M261.135 9.28298C261.135 11.1857 259.594 12.7232 257.704 12.7232C255.814 12.7232 254.273 11.1781 254.273 9.28298C254.273 7.38782 255.807 5.84277 257.704 5.84277C259.601 5.84277 261.135 7.38782 261.135 9.28298Z" fill="#DB74FF"/>
<path d="M259.951 40.3514L258.456 37.8473C258.964 37.5353 263.313 34.6279 260.391 28.3031L263.032 27.0701C266.311 34.1636 262.455 38.8596 259.951 40.3514Z" fill="#DB74FF"/>
<path d="M14.7166 118.441L13.2214 115.937C13.73 115.625 18.0789 112.717 15.1568 106.392L17.7981 105.159C21.0769 112.253 17.2213 116.949 14.7166 118.441Z" fill="#8424A6"/>
<path d="M366.072 37.9659L364.581 41.9814L380.142 47.7944L381.634 43.7789L366.072 37.9659Z" fill="#DB74FF"/>
<path d="M375.139 59.1316L372.426 60.1985L376.559 70.7706L379.273 69.7037L375.139 59.1316Z" fill="#8424A6"/>
<path d="M381.623 26.0653C381.623 27.6637 380.325 28.9652 378.731 28.9652C377.137 28.9652 375.839 27.6637 375.839 26.0653C375.839 24.467 377.137 23.1655 378.731 23.1655C380.325 23.1655 381.623 24.467 381.623 26.0653Z" fill="#DB74FF"/>
<path d="M367.46 67.8273C367.46 69.4256 366.162 70.7271 364.568 70.7271C362.975 70.7271 361.677 69.4256 361.677 67.8273C361.677 66.229 362.975 64.9275 364.568 64.9275C366.162 64.9275 367.46 66.229 367.46 67.8273Z" fill="#8424A6"/>
<path d="M366.752 -1.55444L364.038 -0.488037L368.17 10.0848L370.883 9.01836L366.752 -1.55444Z" fill="#570994"/>
<path d="M353.935 29.8023L352.44 27.2983C352.948 26.9862 357.297 24.0788 354.375 17.754L357.017 16.521C360.295 23.6145 356.44 28.3105 353.935 29.8023Z" fill="#B67DDB"/>
<path d="M355.753 43.5926L347.212 51.0486L349.126 53.253L357.667 45.797L355.753 43.5926Z" fill="#8424A6"/>
<path d="M344.235 33.8286C344.235 35.7314 342.694 37.2688 340.805 37.2688C338.915 37.2688 337.374 35.7238 337.374 33.8286C337.374 31.9335 338.907 30.3884 340.805 30.3884C342.702 30.3884 344.235 31.9335 344.235 33.8286Z" fill="#570994"/>
<path d="M333.239 2.55615L330.525 3.62256L334.657 14.1954L337.371 13.129L333.239 2.55615Z" fill="#B67DDB"/>
<path d="M309.925 12.8436L308.433 16.8589L323.994 22.6746L325.486 18.6593L309.925 12.8436Z" fill="#DB74FF"/>
<path d="M308.04 39.9631C308.04 41.5614 306.742 42.8629 305.148 42.8629C303.554 42.8629 302.256 41.5614 302.256 39.9631C302.256 38.3647 303.547 37.0632 305.148 37.0632C306.75 37.0632 308.04 38.3571 308.04 39.9631Z" fill="#DB74FF"/>
<path d="M296.323 15.725L287.78 23.1794L289.693 25.3842L298.236 17.9297L296.323 15.725Z" fill="#8424A6"/>
<path d="M337.443 98.028C337.443 99.6263 336.145 100.928 334.551 100.928C332.957 100.928 331.659 99.6263 331.659 98.028C331.659 96.4297 332.949 95.1282 334.551 95.1282C336.152 95.1282 337.443 96.4297 337.443 98.028Z" fill="#8424A6"/>
<path d="M323.918 60.0106L322.422 57.5065C322.931 57.1945 327.28 54.287 324.358 47.9622L326.999 46.7292C330.278 53.8228 326.422 58.5188 323.918 60.0106Z" fill="#8424A6"/>
<path d="M325.724 73.7927L317.185 81.2502L319.099 83.4543L327.638 75.9968L325.724 73.7927Z" fill="#570994"/>
<path d="M314.218 64.0293C314.218 65.9321 312.685 67.4695 310.787 67.4695C308.89 67.4695 307.356 65.9245 307.356 64.0293C307.356 62.1342 308.89 60.5891 310.787 60.5891C312.685 60.5891 314.218 62.1342 314.218 64.0293Z" fill="#8424A6"/>
<path d="M194.787 90.9225L189.268 107.417L193.499 108.841L199.018 92.3462L194.787 90.9225Z" fill="#DB74FF"/>
<path d="M217.994 97.7767C218.958 99.413 218.404 101.529 216.772 102.488C215.133 103.455 213.03 102.899 212.074 101.263C211.11 99.6261 211.657 97.5103 213.296 96.5513C214.928 95.5923 217.038 96.1403 217.994 97.7767Z" fill="#8424A6"/>
<path d="M410.335 4.26454L408.843 8.27979L424.404 14.0955L425.896 10.0802L410.335 4.26454Z" fill="#DB74FF"/>
<path d="M401.485 39.9631C401.485 41.5614 400.187 42.8629 398.593 42.8629C397 42.8629 395.702 41.5614 395.702 39.9631C395.702 38.3647 397 37.0632 398.593 37.0632C400.187 37.0632 401.485 38.3647 401.485 39.9631Z" fill="#8424A6"/>
<path d="M113.331 105.654L111.836 103.15C112.344 102.838 116.693 99.9308 113.771 93.606L116.413 92.373C119.699 99.4666 115.836 104.163 113.331 105.654Z" fill="#8621F0"/>
<path d="M244.315 30.2664C244.315 32.1691 242.782 33.7066 240.885 33.7066C238.987 33.7066 237.454 32.1615 237.454 30.2664C237.454 28.3712 238.987 26.8262 240.885 26.8262C242.782 26.8262 244.315 28.3712 244.315 30.2664Z" fill="#8621F0"/>
<path d="M87.8975 37.3985L86.4023 34.8945C86.9109 34.5824 91.2598 31.675 88.3377 25.3502L90.979 24.1172C94.2578 31.2107 90.4022 35.9067 87.8975 37.3985Z" fill="#8621F0"/>
<path d="M179.605 91.6651L178.109 89.161C178.618 88.849 182.967 85.9416 180.045 79.6168L182.686 78.3838C185.972 85.4773 182.109 90.1733 179.605 91.6651Z" fill="#8621F0"/>
<path d="M290.561 69.8217C290.561 71.42 289.263 72.7215 287.669 72.7215C286.075 72.7215 284.777 71.42 284.777 69.8217C284.777 68.2234 286.075 66.9219 287.669 66.9219C289.263 66.9219 290.561 68.2234 290.561 69.8217Z" fill="#8621F0"/>
<path d="M336.066 68.1713L334.573 72.1865L350.134 78.0022L351.626 73.987L336.066 68.1713Z" fill="#8621F0"/>
<path d="M400.008 9.90189L391.468 17.3594L393.382 19.5635L401.922 12.106L400.008 9.90189Z" fill="#8621F0"/>
<path d="M412.284 83.0316L410.792 87.0471L426.354 92.8601L427.845 88.8446L412.284 83.0316Z" fill="#8424A6"/>
<path d="M429.865 114.488L427.151 115.555L431.283 126.127L433.997 125.061L429.865 114.488Z" fill="#8424A6"/>
<path d="M422.19 123.198C422.19 124.796 420.892 126.097 419.298 126.097C417.705 126.097 416.407 124.796 416.407 123.198C416.407 121.599 417.705 120.298 419.298 120.298C420.892 120.298 422.19 121.599 422.19 123.198Z" fill="#8424A6"/>
<path d="M410.48 98.9595L401.939 106.416L403.853 108.62L412.394 101.164L410.48 98.9595Z" fill="#8424A6"/>
<path d="M398.966 89.199C398.966 91.1018 397.425 92.6392 395.535 92.6392C393.645 92.6392 392.104 91.0941 392.104 89.199C392.104 87.3038 393.645 85.7588 395.535 85.7588C397.425 85.7588 398.966 87.3038 398.966 89.199Z" fill="#DB74FF"/>
<path d="M362.77 95.3412C362.77 96.9395 361.472 98.241 359.878 98.241C358.284 98.241 356.986 96.9395 356.986 95.3412C356.986 93.7429 358.284 92.4414 359.878 92.4414C361.472 92.4414 362.77 93.7429 362.77 95.3412Z" fill="#570994"/>
<path d="M378.648 115.381L377.152 112.877C377.661 112.565 382.01 109.658 379.088 103.333L381.729 102.1C385.008 109.193 381.152 113.889 378.648 115.381Z" fill="#B67DDB"/>
<path d="M368.948 119.407C368.948 121.31 367.407 122.855 365.517 122.855C363.627 122.855 362.086 121.31 362.086 119.407C362.086 117.505 363.62 115.967 365.517 115.967C367.414 115.967 368.948 117.512 368.948 119.407Z" fill="#570994"/>
<path d="M404.613 63.2758C404.613 64.8741 403.315 66.1756 401.721 66.1756C400.127 66.1756 398.829 64.8741 398.829 63.2758C398.829 61.6775 400.127 60.376 401.721 60.376C403.315 60.376 404.613 61.6775 404.613 63.2758Z" fill="#B67DDB"/>
<path d="M276.549 87.3877C275.593 89.0317 273.491 89.5873 271.859 88.636C270.22 87.677 269.665 85.5687 270.614 83.9247C271.57 82.2807 273.665 81.7251 275.305 82.6765C276.944 83.6355 277.498 85.7361 276.549 87.3801V87.3877Z" fill="#8424A6"/>
<path d="M301.945 105.608L301.907 102.686C302.499 102.671 307.721 102.351 308.366 95.4097L311.265 95.6761C310.544 103.462 304.86 105.578 301.945 105.601V105.608Z" fill="#8424A6"/>
<path d="M291.54 104.2C290.583 105.844 288.481 106.4 286.849 105.449C285.21 104.49 284.656 102.389 285.604 100.737C286.561 99.0935 288.663 98.5379 290.302 99.4892C291.942 100.441 292.496 102.549 291.547 104.193L291.54 104.2Z" fill="#570994"/>
<path d="M244.316 117.634C244.316 119.537 242.79 121.082 240.9 121.089C239.003 121.097 237.462 119.56 237.455 117.657C237.447 115.754 238.98 114.209 240.87 114.201C242.767 114.194 244.308 115.731 244.316 117.626V117.634Z" fill="#570994"/>
<path d="M217.045 122.604L215.55 120.1C216.059 119.788 220.408 116.881 217.486 110.556L220.127 109.323C223.413 116.416 219.55 121.112 217.045 122.604Z" fill="#8424A6"/>
<path d="M254.332 95.1006L252.446 97.3286L261.078 104.678L262.965 102.45L254.332 95.1006Z" fill="#DB74FF"/>
<path d="M232.595 87.0161L229.882 88.083L234.016 98.6551L236.729 97.5882L232.595 87.0161Z" fill="#8424A6"/>
<path d="M271.556 124.286L270.061 121.782C270.569 121.47 274.918 118.563 271.996 112.238L274.637 111.005C277.916 118.098 274.06 122.794 271.556 124.286Z" fill="#8424A6"/>
</g>
</svg>
