<svg width="35" height="34" viewBox="0 0 35 34" fill="none" xmlns="http://www.w3.org/2000/svg">
<path id="Vector" fill-rule="evenodd" clip-rule="evenodd" d="M17.5104 2.26509C15.4743 2.26509 13.8239 3.91556 13.8239 5.95153C13.8239 7.98749 15.4743 9.63796 17.5104 9.63796C19.5464 9.63796 21.1968 7.98749 21.1968 5.95153C21.1968 3.91556 19.5464 2.26509 17.5104 2.26509ZM11.9807 5.95153C11.9807 2.89759 14.4563 0.421875 17.5104 0.421875C20.5644 0.421875 23.04 2.89759 23.04 5.95153C23.04 7.99827 21.928 9.78531 20.2752 10.7414V11.8437L33.0476 18.4957C33.7928 18.906 34.0993 19.6879 34.0993 20.3629C34.0993 20.4298 34.0964 20.4978 34.0901 20.5666C34.0962 20.6092 34.0993 20.6528 34.0993 20.6973V24.1994C34.0993 25.2205 33.5364 26.1585 32.6355 26.6389L20.6896 33.0094L20.6361 33.0299C18.653 33.7898 16.3678 33.7898 14.3846 33.0299L14.3312 33.0094L2.38525 26.6389C1.48423 26.1585 0.921405 25.2205 0.921405 24.1994V20.6973C0.921405 20.6528 0.924539 20.6093 0.930585 20.5666C0.92441 20.498 0.921387 20.43 0.921387 20.3629C0.921387 19.6879 1.22797 18.9064 1.97333 18.4959L1.99195 18.4858L14.7455 11.8437V10.7414C13.0927 9.78531 11.9807 7.99827 11.9807 5.95153ZM16.5888 11.4047V20.2733C16.6391 20.3115 16.6947 20.3515 16.7545 20.3913C17.054 20.5911 17.3266 20.6973 17.5104 20.6973C17.6941 20.6973 17.9667 20.5911 18.2663 20.3913C18.326 20.3515 18.3817 20.3115 18.432 20.2733V11.4047C18.1323 11.455 17.8245 11.4812 17.5104 11.4812C17.1963 11.4812 16.8885 11.455 16.5888 11.4047ZM19.3536 20.6973C20.0054 21.349 20.0052 21.349 20.005 21.3492L20.002 21.3522L19.9974 21.3568L19.984 21.3699C19.9731 21.3804 19.9587 21.394 19.941 21.4106C19.9056 21.4438 19.8562 21.4886 19.795 21.5411C19.6734 21.6452 19.4996 21.7844 19.2889 21.9249C18.8972 22.1858 18.2482 22.5405 17.5104 22.5405C16.7725 22.5405 16.1235 22.1858 15.7318 21.9249C15.5212 21.7844 15.3473 21.6452 15.2257 21.5411C15.1645 21.4886 15.1151 21.4438 15.0797 21.4106C15.062 21.394 15.0476 21.3804 15.0368 21.3699L15.0233 21.3568L15.0187 21.3522L15.0169 21.3503C15.0167 21.3501 15.0154 21.349 15.6671 20.6973L15.0154 21.349C14.8427 21.1761 14.7455 20.9417 14.7455 20.6973V13.922L2.85891 20.1128C2.83417 20.1288 2.76461 20.1974 2.76461 20.3629C2.76461 20.5365 2.84121 20.6034 2.86224 20.6151L15.3975 27.5157C16.7405 28.255 18.2803 28.255 19.6233 27.5157L32.1584 20.6151C32.1794 20.6034 32.2561 20.5365 32.2561 20.3629C32.2561 20.1974 32.1866 20.1288 32.1618 20.1128L20.2752 13.922V20.6973C20.2752 20.9417 20.1777 21.1765 20.005 21.3492L19.3536 20.6973ZM2.76463 22.6655V24.1994C2.76463 24.5396 2.95223 24.8524 3.25256 25.0126L15.0959 31.3282C16.6254 31.8994 18.3953 31.8994 19.925 31.3282L31.7682 25.0126C32.0685 24.8524 32.2561 24.5396 32.2561 24.1994V22.6655L20.5122 29.1304C18.6157 30.1744 16.405 30.1744 14.5085 29.1304L2.76463 22.6655ZM7.50037 19.2212C7.98702 18.9779 8.59484 18.854 9.21588 18.854C9.83691 18.854 10.4447 18.9779 10.9314 19.2212C11.3629 19.4371 11.9807 19.9056 11.9807 20.6973C11.9807 21.4889 11.3629 21.9575 10.9314 22.1733C10.4447 22.4166 9.83691 22.5405 9.21588 22.5405C8.59484 22.5405 7.98702 22.4166 7.50037 22.1733C7.06884 21.9575 6.45105 21.4889 6.45105 20.6973C6.45105 19.9056 7.06884 19.4371 7.50037 19.2212Z" fill="url(#paint0_linear_496_11751)"/>
<defs>
<linearGradient id="paint0_linear_496_11751" x1="0.921387" y1="5.48721" x2="36.5652" y2="16.8891" gradientUnits="userSpaceOnUse">
<stop stop-color="white"/>
<stop offset="1" stop-color="#C66AE6"/>
</linearGradient>
</defs>
</svg>
