<svg xmlns="http://www.w3.org/2000/svg" width="24" height="23" viewBox="0 0 24 23" fill="none">
  <path fill-rule="evenodd" clip-rule="evenodd" d="M21.2341 22.3184H2.99302C2.36104 22.3184 1.75697 22.0694 1.31027 21.6269C0.863574 21.1869 0.612305 20.586 0.612305 19.96V12.8898C0.612305 12.2637 0.863574 11.6653 1.31027 11.2228C1.75697 10.7828 2.36104 10.5314 2.99302 10.5314H6.95748C7.22906 10.5314 7.49809 10.5792 7.74936 10.6672V2.67425C7.74936 1.37185 8.81535 0.318359 10.1301 0.318359H14.0945C15.4093 0.318359 16.4752 1.37436 16.4752 2.67425V6.73733C16.7265 6.64933 16.9956 6.60156 17.2671 6.60156H21.2316C21.8636 6.60156 22.4676 6.85047 22.9143 7.29047C23.361 7.73299 23.6123 8.3339 23.6123 8.95745V19.9574C23.6123 20.581 23.361 21.1844 22.9143 21.6244C22.4676 22.0669 21.8636 22.3158 21.2316 22.3158L21.2341 22.3184ZM7.74936 12.8898C7.74936 12.6811 7.6656 12.4825 7.5184 12.3341C7.36865 12.1883 7.16814 12.1053 6.95748 12.1053H2.99302C2.78236 12.1053 2.58185 12.1883 2.4321 12.3341C2.28236 12.4825 2.20114 12.6836 2.20114 12.8898V19.96C2.20114 20.1686 2.28489 20.3673 2.4321 20.5156C2.58185 20.664 2.78236 20.7469 2.99302 20.7469H7.7519V12.8898H7.74936ZM14.889 20.7469V2.67425C14.889 2.24179 14.5336 1.88979 14.0971 1.88979H10.1326C9.69352 1.88979 9.34073 2.24179 9.34073 2.67425V20.7469H14.894H14.889ZM16.4752 20.7469H21.2341C21.4448 20.7469 21.6453 20.664 21.795 20.5156C21.9448 20.3673 22.026 20.1686 22.026 19.96V8.95996C22.026 8.75127 21.9423 8.55264 21.795 8.4043C21.6453 8.25596 21.4448 8.1755 21.2341 8.1755H17.2697C17.059 8.1755 16.8585 8.25847 16.7087 8.4043C16.559 8.55264 16.4778 8.75127 16.4778 8.95996V20.7469H16.4752Z" fill="#E498FE"/>
</svg>