<svg xmlns="http://www.w3.org/2000/svg" width="36" height="43" viewBox="0 0 36 43" fill="none">
  <path d="M28.803 24.7373H22.1439V15.1056C22.1439 14.8295 21.9129 14.6062 21.6272 14.6062H18.5557V13.2162C18.5557 12.9401 18.3246 12.7168 18.0389 12.7168C17.7533 12.7168 17.5222 12.9401 17.5222 13.2162V14.6062H14.4514C14.1657 14.6062 13.9346 14.8295 13.9346 15.1056V18.8952H7.27555C6.98988 18.8952 6.75879 19.1186 6.75879 19.3946V36.1365C6.75879 36.4126 6.98988 36.6359 7.27555 36.6359H28.803C29.0887 36.6359 29.3198 36.4126 29.3198 36.1365V25.2367C29.3198 24.9606 29.0887 24.7373 28.803 24.7373ZM7.7916 19.8947H13.9339V35.6371H7.7916V19.8947ZM14.9681 19.3953V15.605H21.1104V35.6371H14.9681V19.3953ZM28.2862 35.6371H22.1439V25.7361H28.2862V35.6371Z" fill="#E498FE"/>
  <path d="M16.0245 10.2801L15.7693 12.0393C15.7423 12.2276 15.8281 12.4147 15.9904 12.5215C16.0783 12.5791 16.179 12.6085 16.2811 12.6085C16.369 12.6085 16.4569 12.5873 16.5355 12.5434L18.1362 11.6693L19.7892 12.4482C19.965 12.5325 20.177 12.5099 20.3315 12.3948C20.4882 12.2783 20.5619 12.0865 20.5222 11.9002L20.1557 10.1588L21.4317 8.8805C21.5692 8.74418 21.6131 8.54415 21.5465 8.36466C21.4799 8.18587 21.314 8.05845 21.1183 8.03721L19.293 7.83512L18.4289 6.26636C18.3361 6.09784 18.1766 5.98687 17.9561 6.00125C17.7605 6.00742 17.5832 6.12045 17.5017 6.29377L16.7397 7.91048L14.9293 8.22012C14.7357 8.253 14.5777 8.38932 14.5224 8.57223C14.4678 8.75514 14.5245 8.95175 14.6698 9.08054L16.0245 10.2801ZM17.1863 8.84831C17.3536 8.82022 17.4961 8.71335 17.5669 8.56401L18.0071 7.62961L18.5069 8.53593C18.587 8.68115 18.7351 8.77912 18.9046 8.79761L19.9601 8.91476L19.2228 9.65324C19.1045 9.77106 19.0541 9.9389 19.0875 10.0999L19.2994 11.1062L18.3431 10.6561C18.1915 10.5842 18.0121 10.589 17.8625 10.6705L16.9375 11.1754L17.0849 10.1588C17.1083 9.99576 17.0473 9.83272 16.9226 9.72106L16.1393 9.0271L17.1863 8.84831Z" fill="#E498FE"/>
</svg>