<svg xmlns="http://www.w3.org/2000/svg" width="23" height="28" viewBox="0 0 23 28" fill="none">
  <path d="M8.42053 11.4468C9.70393 11.4468 10.8628 10.6258 11.354 9.36808C11.8452 8.11044 11.5729 6.66275 10.6658 5.69959C9.75728 4.73639 8.3918 4.44919 7.20419 4.96997C6.01795 5.49071 5.24488 6.71789 5.24488 8.07999C5.24624 9.93817 6.66647 11.4453 8.42053 11.4468ZM22.4038 15.23L17.0703 13.5488C16.9157 13.4995 16.7502 13.4995 16.5942 13.5488L13.4062 14.5541C16.1249 10.1328 16.0305 7.04286 15.256 5.06284C14.249 2.48518 11.5646 0.818359 8.41884 0.818359C5.27311 0.818359 2.58867 2.48362 1.58166 5.06136C0.818186 7.01527 0.715558 10.047 3.32066 14.371L0.596537 15.2297C0.242174 15.3414 0 15.6867 0 16.0783V26.9328C0 27.2127 0.124509 27.4753 0.335215 27.6436C0.54729 27.8104 0.820928 27.8612 1.0727 27.7814L6.16661 26.1756L11.2619 27.7814C11.4179 27.8307 11.5821 27.8307 11.7381 27.7814L16.832 26.1756L21.9273 27.7814C22.1791 27.8611 22.4527 27.8104 22.6648 27.6436C22.8755 27.4753 23 27.2127 23 26.9328V16.0783C23 15.6867 22.7578 15.3414 22.4035 15.2297L22.4038 15.23ZM3.12696 5.7388C3.87401 3.82552 5.95234 2.5896 8.41912 2.5896C10.8874 2.5896 12.9656 3.82548 13.7127 5.74025C14.301 7.24739 14.5268 10.3297 10.7737 15.4027C10.7491 15.4288 10.7245 15.4563 10.7026 15.4854C10.0281 16.3934 9.26186 17.3203 8.41905 18.2501H8.42041C7.30531 17.036 6.2764 15.7363 5.34326 14.361C5.31727 14.3219 5.2899 14.2856 5.25843 14.2522C2.34958 9.85699 2.58377 7.12838 3.12696 5.7388ZM21.3313 25.7451L17.0707 24.4033C16.9161 24.354 16.7505 24.354 16.5945 24.4033L11.5006 26.009L6.40671 24.4033C6.25073 24.354 6.08518 24.354 5.93056 24.4033L1.67133 25.7465V16.7384L4.32431 15.9029C5.08915 16.9792 5.9087 18.0106 6.78027 18.9897C6.84594 19.0637 6.91162 19.1376 6.97729 19.2116C7.07307 19.319 7.16747 19.4249 7.26735 19.5336C7.4507 19.7353 7.63814 19.9383 7.8297 20.1414C7.98568 20.3082 8.19913 20.4011 8.42078 20.4011C8.64106 20.4011 8.85451 20.3082 9.01048 20.1414C9.26224 19.8745 9.50443 19.6105 9.73974 19.3494C9.75752 19.3306 9.77394 19.3117 9.79036 19.2929C10.5319 18.4675 11.1928 17.6755 11.7715 16.9168L16.8325 15.3212L21.3299 16.7384L21.3313 25.7451Z" fill="#E498FE"/>
</svg>