<svg width="33" height="32" viewBox="0 0 33 32" fill="none" xmlns="http://www.w3.org/2000/svg">
<g id="Call, center, help, service">
<path id="Vector" d="M29.3405 14.4246H29.0745V12.6215C29.0745 9.27407 27.7448 6.06374 25.3778 3.69675C23.0108 1.32976 19.8005 0 16.453 0C13.1056 0 9.89527 1.32976 7.52828 3.69675C5.16129 6.06374 3.83153 9.27407 3.83153 12.6215V14.4246H3.56557C2.62029 14.4258 1.71407 14.8018 1.04565 15.4702C0.377233 16.1386 0.00119279 17.0449 0 17.9901V23.0297C0.00105555 23.9645 0.369182 24.8615 1.02511 25.5276C1.68104 26.1936 2.5723 26.5754 3.50697 26.5908C3.42595 26.7273 3.38241 26.8828 3.38076 27.0416V27.8529C3.38195 28.9524 3.81926 30.0066 4.59672 30.784C5.37419 31.5615 6.42832 31.9988 7.52782 32H16.453C16.6921 32 16.9214 31.905 17.0905 31.7359C17.2596 31.5669 17.3546 31.3376 17.3546 31.0985C17.3546 30.8594 17.2596 30.6301 17.0905 30.461C16.9214 30.2919 16.6921 30.1969 16.453 30.1969H7.52782C6.90694 30.1969 6.31141 29.9506 5.87196 29.512C5.43251 29.0734 5.18502 28.4783 5.18383 27.8574V27.0461C5.18218 26.8873 5.13864 26.7318 5.05761 26.5953H7.66305C7.90215 26.5953 8.13146 26.5003 8.30053 26.3312C8.4696 26.1622 8.56459 25.9329 8.56459 25.6938V15.3261C8.56459 15.087 8.4696 14.8577 8.30053 14.6886C8.13146 14.5195 7.90215 14.4246 7.66305 14.4246H5.6346V12.6215C5.6346 9.75227 6.77439 7.00056 8.80324 4.97171C10.8321 2.94287 13.5838 1.80307 16.453 1.80307C19.3222 1.80307 22.074 2.94287 24.1028 4.97171C26.1317 7.00056 27.2714 9.75227 27.2714 12.6215V14.4246H25.243C25.0039 14.4246 24.7746 14.5195 24.6055 14.6886C24.4364 14.8577 24.3415 15.087 24.3415 15.3261V25.6938C24.3415 25.9329 24.4364 26.1622 24.6055 26.3312C24.7746 26.5003 25.0039 26.5953 25.243 26.5953H29.3405C30.2858 26.5941 31.192 26.2181 31.8604 25.5496C32.5288 24.8812 32.9049 23.975 32.906 23.0297V17.9901C32.9049 17.0449 32.5288 16.1386 31.8604 15.4702C31.192 14.8018 30.2858 14.4258 29.3405 14.4246ZM6.76152 16.2276V24.7922H3.56557C3.09813 24.7922 2.64983 24.6065 2.3193 24.276C1.98876 23.9455 1.80307 23.4972 1.80307 23.0297V17.9901C1.80307 17.5227 1.98876 17.0744 2.3193 16.7439C2.64983 16.4133 3.09813 16.2276 3.56557 16.2276H6.76152ZM31.103 23.0297C31.103 23.4972 30.9173 23.9455 30.5868 24.276C30.2562 24.6065 29.8079 24.7922 29.3405 24.7922H26.1445V16.2276H29.3405C29.8079 16.2276 30.2562 16.4133 30.5868 16.7439C30.9173 17.0744 31.103 17.5227 31.103 17.9901V23.0297Z" fill="url(#paint0_linear_270_39)"/>
</g>
<defs>
<linearGradient id="paint0_linear_270_39" x1="-1.66184e-07" y1="4.8855" x2="35.1642" y2="16.4525" gradientUnits="userSpaceOnUse">
<stop stop-color="white"/>
<stop offset="1" stop-color="#C66AE6"/>
</linearGradient>
</defs>
</svg>
