<svg width="32" height="32" viewBox="0 0 32 32" fill="none" xmlns="http://www.w3.org/2000/svg">
<g id="Group">
<path id="Vector" d="M32 18.7636V13.1636L28.6545 12.5091C28.3636 11.4182 27.9273 10.4 27.3455 9.45455L29.3091 6.61818L25.3818 2.69091L22.5455 4.65455C21.6 4.07273 20.5091 3.63636 19.4909 3.34545L18.7636 0H13.1636L12.5091 3.34545C11.4182 3.63636 10.4 4.07273 9.45455 4.65455L6.61818 2.69091L2.69091 6.61818L4.65455 9.45455C4.07273 10.4 3.63636 11.4909 3.34545 12.5091L0 13.2364V18.8364L3.34545 19.4909C3.63636 20.5818 4.07273 21.6 4.65455 22.5455L2.69091 25.3818L6.61818 29.3091L9.45455 27.3455C10.4 27.9273 11.4909 28.3636 12.5091 28.6545L13.1636 32H18.7636L19.4182 28.6545C20.5091 28.3636 21.5273 27.9273 22.4727 27.3455L25.3091 29.3091L29.2364 25.3818L27.2727 22.5455C27.8545 21.6 28.2909 20.5091 28.5818 19.4909L32 18.7636ZM27.3455 18.6182C27.0545 19.8545 26.5455 21.0182 25.8909 22.1091L25.6 22.5455L27.4182 25.1636L25.1636 27.4182L22.5455 25.6L22.1091 25.8182C21.0182 26.4727 19.8545 26.9818 18.6182 27.2727L18.1818 27.4182L17.6 30.5455H14.4727L13.8182 27.4182L13.3818 27.3455C12.1455 27.0545 10.9818 26.5455 9.89091 25.8909L9.45455 25.6L6.83636 27.4182L4.58182 25.1636L6.4 22.5455L6.18182 22.1091C5.52727 21.0182 5.01818 19.8545 4.72727 18.6182L4.58182 18.1818L1.45455 17.6V14.4727L4.58182 13.8182L4.65455 13.3818C4.94545 12.1455 5.45455 10.9818 6.10909 9.89091L6.32727 9.45455L4.50909 6.83636L6.76364 4.58182L9.38182 6.4L9.81818 6.18182C10.9091 5.52727 12.0727 5.01818 13.3091 4.72727L13.8182 4.58182L14.4 1.45455H17.5273L18.1818 4.58182L18.6182 4.65455C19.8545 4.94545 21.0182 5.45455 22.1091 6.10909L22.5455 6.32727L25.1636 4.50909L27.4182 6.76364L25.6 9.45455L25.8182 9.89091C26.4727 10.9818 26.9818 12.1455 27.2727 13.3818L27.3455 13.8182L30.4727 14.4V17.5273L27.4182 18.1818L27.3455 18.6182Z" fill="url(#paint0_linear_270_46)"/>
<path id="Vector_2" d="M16 8.72729C12 8.72729 8.72729 12 8.72729 16C8.72729 20 12 23.2727 16 23.2727C20 23.2727 23.2727 20 23.2727 16C23.2727 12 20 8.72729 16 8.72729ZM16 21.8182C12.8 21.8182 10.1818 19.2 10.1818 16C10.1818 12.8 12.8 10.1818 16 10.1818C19.2 10.1818 21.8182 12.8 21.8182 16C21.8182 19.2 19.2 21.8182 16 21.8182Z" fill="url(#paint1_linear_270_46)"/>
</g>
<defs>
<linearGradient id="paint0_linear_270_46" x1="-1.61608e-07" y1="4.8855" x2="34.3783" y2="15.8826" gradientUnits="userSpaceOnUse">
<stop stop-color="white"/>
<stop offset="1" stop-color="#C66AE6"/>
</linearGradient>
<linearGradient id="paint1_linear_270_46" x1="8.72729" y1="10.948" x2="24.3538" y2="15.9467" gradientUnits="userSpaceOnUse">
<stop stop-color="white"/>
<stop offset="1" stop-color="#C66AE6"/>
</linearGradient>
</defs>
</svg>
