<svg xmlns="http://www.w3.org/2000/svg" width="45" height="28" viewBox="0 0 45 28" fill="none">
  <path d="M30.6451 11.2063H3.35086C1.52312 11.2063 0 12.3631 0 13.7512C0 15.1394 1.52312 16.2962 3.35086 16.2962H30.7061C32.5338 16.2962 34.0569 15.1394 34.0569 13.7512C33.996 12.3168 32.5338 11.2063 30.6451 11.2063Z" fill="#BA00FB"/>
  <path d="M41.307 0.177063H3.35086C1.52312 0.177063 0 1.33384 0 2.72198C0 4.11012 1.52312 5.2669 3.35086 5.2669H41.3679C43.1956 5.2669 44.7188 4.11012 44.7188 2.72198C44.6578 1.33384 43.1956 0.177063 41.307 0.177063Z" fill="#BA00FB"/>
  <path d="M41.307 22.2358H3.35086C1.52312 22.2358 0 23.3925 0 24.7807C0 26.1688 1.52312 27.3256 3.35086 27.3256H41.3679C43.1956 27.3256 44.7188 26.1688 44.7188 24.7807C44.6578 23.3925 43.1956 22.2358 41.307 22.2358Z" fill="#BA00FB"/>
</svg>