<svg width="32" height="32" viewBox="0 0 32 32" fill="none" xmlns="http://www.w3.org/2000/svg">
<path id="Vector" d="M16 0C7.17714 0 0 7.17714 0 16C0 19.0502 0.861091 22.0164 2.49157 24.5764C2.7176 24.9319 3.1871 25.0361 3.54266 24.81C3.89821 24.584 4.00232 24.1145 3.77629 23.7589C2.30327 21.4427 1.52381 18.7581 1.52381 16C1.52381 8.01778 8.01778 1.52381 16 1.52381C23.9822 1.52381 30.4762 8.01778 30.4762 16C30.4762 18.7835 29.6839 21.488 28.1855 23.8194C27.9569 24.1725 28.0612 24.6449 28.4142 24.8735C28.5412 24.9548 28.6832 24.9955 28.8254 24.9955C29.0768 24.9955 29.3205 24.8709 29.4678 24.6448C31.1236 22.0671 32 19.0781 32 16C32 7.17714 24.8229 0 16 0ZM16 7.61905C12.7797 7.61905 10.1587 10.24 10.1587 13.4603C10.1587 16.6806 12.7797 19.3016 16 19.3016C19.2203 19.3016 21.8413 16.6806 21.8413 13.4603C21.8413 10.24 19.2203 7.61905 16 7.61905ZM16 9.14286C18.3797 9.14286 20.3175 11.0806 20.3175 13.4603C20.3175 15.84 18.3797 17.7778 16 17.7778C13.6203 17.7778 11.6825 15.84 11.6825 13.4603C11.6825 11.0806 13.6203 9.14286 16 9.14286ZM16 22.247C12.1257 22.247 8.25165 23.7218 5.30308 26.6716C5.29292 26.6818 5.2849 26.6897 5.27728 26.6999L5.20387 26.7808C4.92196 27.0931 4.94456 27.5732 5.25694 27.8576C8.20298 30.5294 12.0178 32 16 32C19.9822 32 23.797 30.5294 26.7431 27.8552C27.0554 27.5733 27.078 27.0907 26.7961 26.7783L26.7579 26.7401C26.7402 26.7172 26.7172 26.6919 26.6969 26.6716C23.7484 23.7218 19.8743 22.247 16 22.247ZM16 23.7708C19.2616 23.7708 22.5231 24.9334 25.1022 27.2584C22.532 29.3384 19.3295 30.4762 16 30.4762C12.6705 30.4762 9.46798 29.3384 6.89782 27.2584C9.47687 24.9334 12.7384 23.7708 16 23.7708Z" fill="url(#paint0_linear_270_27)"/>
<defs>
<linearGradient id="paint0_linear_270_27" x1="-1.61608e-07" y1="4.8855" x2="34.3783" y2="15.8826" gradientUnits="userSpaceOnUse">
<stop stop-color="white"/>
<stop offset="1" stop-color="#C66AE6"/>
</linearGradient>
</defs>
</svg>
