<svg width="30" height="32" viewBox="0 0 30 32" fill="none" xmlns="http://www.w3.org/2000/svg">
<path id="Vector" d="M8.95268 3.65692V5.86755H12.7734V3.65692H8.95268ZM17.2258 3.65692V5.86938H21.0482V3.65692H17.2258ZM6.7255 0C6.15984 0 5.70257 0.495516 5.70257 1.1044V8.26471C5.70257 8.87543 6.15984 9.37094 6.7255 9.37094C7.29116 9.37094 7.75013 8.87543 7.75013 8.26471V1.1044C7.75013 0.495516 7.29116 0 6.7255 0ZM15.0004 0C14.4347 0 13.9757 0.495516 13.9757 1.1044V8.26471C13.9757 8.87543 14.4347 9.37094 15.0004 9.37094C15.5643 9.37094 16.0233 8.87543 16.0233 8.26471V1.1044C16.0233 0.495516 15.5643 0 15.0004 0ZM23.2735 0C22.7078 0 22.2506 0.495516 22.2506 1.1044V8.26471C22.2506 8.87543 22.7078 9.37094 23.2735 9.37094C23.8392 9.37094 24.2964 8.87543 24.2964 8.26471V1.1044C24.2964 0.495516 23.8392 0 23.2735 0ZM5.25704 11.6544C4.69307 11.6544 4.23411 12.1481 4.23411 12.7588C4.23411 13.3695 4.69307 13.8632 5.25704 13.8632H24.7415C25.3072 13.8632 25.7645 13.3695 25.7645 12.7588C25.7645 12.1481 25.3072 11.6544 24.7415 11.6544H5.25704ZM4.96236 15.3735C4.80655 15.3735 4.65582 15.4411 4.54574 15.56C4.43565 15.6788 4.37299 15.8398 4.37299 16.008V16.9569C4.37299 17.1251 4.43565 17.286 4.54574 17.4049C4.65582 17.5237 4.80655 17.5914 4.96236 17.5914H6.34432C6.66949 17.5914 6.93201 17.3062 6.93201 16.9551V16.0098C6.93201 15.6587 6.6695 15.3753 6.34432 15.3735L4.96236 15.3735ZM11.193 15.3735C11.0372 15.3735 10.8865 15.4411 10.7764 15.56C10.6663 15.6788 10.6053 15.8398 10.6053 16.008V16.9569C10.6053 17.1251 10.6663 17.286 10.7764 17.4049C10.8865 17.5237 11.0372 17.5914 11.193 17.5914H12.575C12.9001 17.5914 13.1627 17.3062 13.1627 16.9551V16.0098C13.1627 15.6587 12.9001 15.3753 12.575 15.3735L11.193 15.3735ZM17.4236 15.3735C17.2678 15.3735 17.1188 15.4411 17.007 15.56C16.8969 15.6788 16.836 15.8398 16.836 16.008V16.9569C16.836 17.1251 16.8969 17.286 17.007 17.4049C17.1188 17.5237 17.2678 17.5914 17.4236 17.5914H18.8056C19.1308 17.5914 19.395 17.3062 19.395 16.9551V16.0098C19.395 15.6587 19.1308 15.3753 18.8056 15.3735L17.4236 15.3735ZM23.6543 15.3735C23.4985 15.3735 23.3494 15.4411 23.2394 15.56C23.1276 15.6788 23.0666 15.8398 23.0666 16.008V16.9569C23.0666 17.1251 23.1276 17.286 23.2394 17.4049C23.3494 17.5237 23.4985 17.5914 23.6543 17.5914H25.0379C25.3614 17.5914 25.6256 17.3062 25.6256 16.9551V16.0098C25.6256 15.6587 25.3614 15.3753 25.0379 15.3735L23.6543 15.3735ZM4.96236 20.6778C4.80655 20.6778 4.65582 20.7437 4.54574 20.8625C4.43565 20.9814 4.37299 21.1441 4.37299 21.3123V22.2594C4.37299 22.4277 4.43565 22.5904 4.54574 22.7092C4.65582 22.8281 4.80655 22.8958 4.96236 22.8958L6.34432 22.8939C6.66949 22.8939 6.93201 22.6105 6.93201 22.2594V21.3123C6.93201 20.9631 6.6695 20.6778 6.34432 20.6778L4.96236 20.6778ZM11.193 20.6778C11.0372 20.6778 10.8865 20.7437 10.7764 20.8625C10.6663 20.9814 10.6053 21.1441 10.6053 21.3123V22.2594C10.6053 22.4277 10.6663 22.5904 10.7764 22.7092C10.8865 22.8281 11.0372 22.8958 11.193 22.8958L12.575 22.8939C12.9001 22.8939 13.1627 22.6105 13.1627 22.2594V21.3123C13.1627 20.9631 12.9001 20.6778 12.575 20.6778L11.193 20.6778ZM17.4236 20.6778C17.2678 20.6778 17.1188 20.7437 17.007 20.8625C16.8969 20.9814 16.836 21.1441 16.836 21.3123V22.2594C16.836 22.4277 16.8969 22.5904 17.007 22.7092C17.1188 22.8281 17.2678 22.8958 17.4236 22.8958L18.8056 22.8939C19.1308 22.8939 19.395 22.6105 19.395 22.2594V21.3123C19.395 20.9631 19.1308 20.6778 18.8056 20.6778L17.4236 20.6778ZM23.6543 20.6778C23.4985 20.6778 23.3494 20.7437 23.2394 20.8625C23.1276 20.9814 23.0666 21.1441 23.0666 21.3123V22.2594C23.0666 22.4277 23.1276 22.5904 23.2394 22.7092C23.3494 22.8281 23.4985 22.8958 23.6543 22.8958L25.0379 22.8939C25.3614 22.8939 25.6256 22.6105 25.6256 22.2594V21.3123C25.6256 20.9631 25.3614 20.6778 25.0379 20.6778L23.6543 20.6778ZM4.96236 25.9803C4.80655 25.9803 4.65582 26.048 4.54574 26.1668C4.43565 26.2857 4.37299 26.4466 4.37299 26.6148V27.5637C4.37299 27.732 4.43565 27.8929 4.54574 28.0117C4.65582 28.1306 4.80655 28.1982 4.96236 28.1982H6.34432C6.66949 28.1982 6.93201 27.913 6.93201 27.5619V26.6166C6.93201 26.2655 6.6695 25.9821 6.34432 25.9803L4.96236 25.9803ZM11.193 25.9803C11.0372 25.9803 10.8865 26.048 10.7764 26.1668C10.6663 26.2857 10.6053 26.4466 10.6053 26.6148V27.5637C10.6053 27.732 10.6663 27.8929 10.7764 28.0117C10.8865 28.1306 11.0372 28.1982 11.193 28.1982H12.575C12.9001 28.1982 13.1627 27.913 13.1627 27.5619V26.6166C13.1627 26.2655 12.9001 25.9821 12.575 25.9803L11.193 25.9803ZM17.4236 25.9803C17.2678 25.9803 17.1188 26.048 17.007 26.1668C16.8969 26.2857 16.836 26.4466 16.836 26.6148V27.5637C16.836 27.732 16.8969 27.8929 17.007 28.0117C17.1188 28.1306 17.2678 28.1982 17.4236 28.1982H18.8056C19.1308 28.1982 19.395 27.913 19.395 27.5619V26.6166C19.395 26.2655 19.1308 25.9821 18.8056 25.9803L17.4236 25.9803ZM23.6543 25.9803C23.4985 25.9803 23.3494 26.048 23.2394 26.1668C23.1276 26.2857 23.0666 26.4466 23.0666 26.6148V27.5637C23.0666 27.732 23.1276 27.8929 23.2394 28.0117C23.3494 28.1306 23.4985 28.1982 23.6543 28.1982H25.0379C25.3614 28.1982 25.6256 27.913 25.6256 27.5619V26.6166C25.6256 26.2655 25.3614 25.9821 25.0379 25.9803L23.6543 25.9803ZM27.1194 3.65683V3.65866L25.4986 3.65683V5.86928H27.0872C27.5648 5.86928 27.9526 6.288 27.9526 6.80546V28.8514C27.9526 29.3688 27.5648 29.7875 27.0872 29.7894H2.91294C2.43364 29.7875 2.04582 29.3688 2.04582 28.8514V6.80546C2.04582 6.28799 2.43365 5.86928 2.91294 5.86746H4.49984V3.65865H2.87908C1.28541 3.67877 0 5.07939 0 6.80546V28.8514C0 30.5774 1.28541 31.978 2.87908 32H27.1192C28.7129 31.9781 30 30.5774 30 28.8514V6.80546C30 5.07939 28.713 3.67878 27.1194 3.65683Z" fill="url(#paint0_linear_270_33)"/>
<defs>
<linearGradient id="paint0_linear_270_33" x1="-1.51507e-07" y1="4.8855" x2="32.5961" y2="14.6608" gradientUnits="userSpaceOnUse">
<stop stop-color="white"/>
<stop offset="1" stop-color="#C66AE6"/>
</linearGradient>
</defs>
</svg>
