<svg xmlns="http://www.w3.org/2000/svg" width="22" height="17" viewBox="0 0 22 17" fill="none">
  <path d="M1.32812 0.318359C0.637775 0.318359 0.078125 0.877984 0.078125 1.56836C0.078125 2.25873 0.637775 2.81836 1.32812 2.81836H19.8281C20.5185 2.81836 21.0781 2.25873 21.0781 1.56836C21.0781 0.877984 20.5185 0.318359 19.8281 0.318359H1.32812ZM1.32812 7.06836C0.637775 7.06836 0.078125 7.62798 0.078125 8.31836C0.078125 9.00873 0.637775 9.56836 1.32812 9.56836H19.8281C20.5185 9.56836 21.0781 9.00873 21.0781 8.31836C21.0781 7.62798 20.5185 7.06836 19.8281 7.06836H1.32812ZM1.32812 13.8184C0.637775 13.8184 0.078125 14.378 0.078125 15.0684C0.078125 15.7587 0.637775 16.3184 1.32812 16.3184H19.8281C20.5185 16.3184 21.0781 15.7587 21.0781 15.0684C21.0781 14.378 20.5185 13.8184 19.8281 13.8184H1.32812Z" fill="#E498FE"/>
</svg>