<svg width="22" height="16" viewBox="0 0 22 16" fill="none" xmlns="http://www.w3.org/2000/svg">
<g clip-path="url(#clip0_1857_17585)">
<path fill-rule="evenodd" clip-rule="evenodd" d="M19.0667 1.93902C19.0667 1.93902 16.8479 0.199899 14.2225 0L13.9893 0.473095C16.3614 1.0528 17.4476 1.88572 18.587 2.90521C16.628 1.90571 14.6889 0.966181 11.3173 0.966181C7.94566 0.966181 6.00664 1.90571 4.04762 2.90521C5.18705 1.88572 6.47973 0.959517 8.64531 0.473095L8.4121 0C5.66015 0.259869 3.56786 1.93902 3.56786 1.93902C3.56786 1.93902 1.08911 5.53722 0.662659 12.6003C3.1614 15.4855 6.95949 15.5055 6.95949 15.5055L7.75243 14.4461C6.40644 13.9796 4.88054 13.1401 3.56786 11.6275C5.13374 12.8136 7.50588 14.0529 11.324 14.0529C15.142 14.0529 17.5075 12.8202 19.0801 11.6275C17.7674 13.1401 16.2415 13.9796 14.8955 14.4461L15.6884 15.5055C15.6884 15.5055 19.4865 15.4855 21.9853 12.6003C21.5455 5.53722 19.0667 1.93902 19.0667 1.93902ZM8.15889 10.6613C7.21936 10.6613 6.45974 9.79507 6.45974 8.72228C6.45974 7.64949 7.21936 6.78326 8.15889 6.78326C9.09842 6.78326 9.85804 7.64949 9.85804 8.72228C9.85804 9.79507 9.09842 10.6613 8.15889 10.6613ZM14.4624 10.6613C13.5229 10.6613 12.7632 9.79507 12.7632 8.72228C12.7632 7.64949 13.5229 6.78326 14.4624 6.78326C15.4019 6.78326 16.1615 7.64949 16.1615 8.72228C16.1615 9.79507 15.3952 10.6613 14.4624 10.6613Z" fill="#C588F9"/>
</g>
<defs>
<clipPath id="clip0_1857_17585">
<rect width="21.3226" height="15.5055" fill="white" transform="translate(0.662659)"/>
</clipPath>
</defs>
</svg>
