<svg width="19" height="16" viewBox="0 0 19 16" fill="none" xmlns="http://www.w3.org/2000/svg">
<path d="M18.6503 0.582966L15.4934 15.121C15.419 15.4621 14.9972 15.6171 14.6995 15.4125L10.389 12.4168C10.1285 12.2369 9.76875 12.2431 9.52066 12.4416L7.13281 14.3085C6.85371 14.5255 6.43816 14.4015 6.33272 14.079L4.67053 8.96836L0.384797 7.43641C-0.0493584 7.28136 -0.0555606 6.69215 0.384797 6.53089L17.9743 0.0309691C18.3464 -0.10548 18.7309 0.204631 18.6503 0.582966ZM14.4452 3.2127L6.06602 8.14967C5.74351 8.34194 5.59466 8.70787 5.70009 9.05519L6.60562 12.1005C6.66764 12.3176 6.99636 12.2927 7.02737 12.0695L7.26305 10.4011C7.30647 10.0848 7.46152 9.79946 7.70961 9.58238L14.6251 3.42978C14.7553 3.31194 14.6003 3.11967 14.4514 3.2065L14.4452 3.2127Z" fill="#C588F9"/>
</svg>
