<svg width="24" height="15" viewBox="0 0 24 15" fill="none" xmlns="http://www.w3.org/2000/svg">
<g clip-path="url(#clip0_1857_17590)">
<path d="M21.8772 0.620224H2.13945C1.50401 0.620224 0.985275 1.13247 0.985275 1.76143V13.7506C0.985275 14.3796 1.50401 14.8918 2.13945 14.8918H21.8836C22.5191 14.8918 23.0378 14.3796 23.0378 13.7506V1.76143C23.0378 1.13247 22.5191 0.620224 21.8836 0.620224H21.8772ZM21.125 11.9221C21.4362 12.1814 21.4816 12.6353 21.2223 12.9466C21.0796 13.1216 20.8656 13.2124 20.6581 13.2124C20.4895 13.2124 20.3274 13.1605 20.1913 13.0438L15.0105 8.79023L12.4816 10.8652C12.3455 10.9754 12.1769 11.0337 12.0148 11.0337C11.8527 11.0337 11.6841 10.9754 11.5479 10.8652L9.01912 8.79023L3.83829 13.0438C3.52706 13.3032 3.0602 13.2578 2.80083 12.9466C2.54147 12.6353 2.58686 12.1814 2.89809 11.9221L7.87142 7.84355L2.89161 3.76503C2.58037 3.50566 2.53498 3.05177 2.79435 2.74054C3.05371 2.4293 3.52057 2.39039 3.83181 2.64327L12.0083 9.35435L20.1848 2.64327C20.496 2.39039 20.9629 2.4293 21.2223 2.74054C21.4816 3.05177 21.4362 3.50566 21.125 3.76503L16.1517 7.84355L21.125 11.9221Z" fill="#C588F9"/>
</g>
<defs>
<clipPath id="clip0_1857_17590">
<rect width="22.0461" height="14.2651" fill="white" transform="translate(0.985275 0.620224)"/>
</clipPath>
</defs>
</svg>
