<svg xmlns="http://www.w3.org/2000/svg" width="17" height="23" viewBox="0 0 17 23" fill="none">
  <path d="M16.2198 14.2972L15.9557 14.0331V9.12082C15.9381 5.53782 13.2442 2.57987 9.78447 2.1485V1.19773C9.78447 0.713538 9.38832 0.317383 8.90413 0.317383C8.41994 0.317383 8.02378 0.713538 8.02378 1.19773V2.1485C6.47438 2.34217 5.03942 3.02884 3.92138 4.15568C2.59206 5.485 1.86137 7.2633 1.86137 9.14723V14.0419L1.61488 14.2972C0.848979 15.0631 0.628893 16.1636 1.04265 17.176C1.45642 18.1796 2.38958 18.8046 3.48121 18.8046H14.3535C15.4363 18.8046 16.3694 18.1796 16.792 17.176C17.2058 16.1724 16.9945 15.0719 16.2286 14.2972H16.2198ZM15.1546 16.4981C15.1017 16.6214 14.8905 17.0351 14.3447 17.0351H3.4724C2.92659 17.0351 2.71531 16.6214 2.66249 16.4893C2.60967 16.3661 2.46881 15.9171 2.85616 15.5297L3.36676 15.0191C3.53403 14.8519 3.62206 14.6318 3.62206 14.3941V9.13843C3.61326 7.72108 4.15907 6.39176 5.16266 5.39697C6.15745 4.39338 7.48677 3.84756 8.90413 3.84756C11.8181 3.84756 14.1862 6.21569 14.1862 9.12963V14.4117C14.195 14.6406 14.283 14.8695 14.4503 15.0279L14.9697 15.5473C15.357 15.9347 15.2074 16.3749 15.1546 16.5069V16.4981Z" fill="#E498FE"/>
  <path d="M10.6732 20.5566H7.14304C6.65885 20.5566 6.2627 20.9528 6.2627 21.437C6.2627 21.9212 6.65885 22.3173 7.14304 22.3173H10.6732C11.1574 22.3173 11.5536 21.9212 11.5536 21.437C11.5536 20.9528 11.1574 20.5566 10.6732 20.5566Z" fill="#E498FE"/>
</svg>