<svg width="29" height="32" viewBox="0 0 29 32" fill="none" xmlns="http://www.w3.org/2000/svg">
<path d="M14.2979 0C12.7687 0 11.5349 1.21077 11.4286 2.71449C7.62862 3.94105 4.84338 7.43557 4.84338 11.6364V15.2727C4.84338 17.1389 4.30153 19.0032 3.41156 20.7727C2.61137 22.364 1.53258 23.8747 0.341962 25.2216H0.340542C-0.456876 26.1243 0.243826 27.6364 1.44139 27.6364H9.93429C9.93429 30.0371 11.8972 32 14.2979 32C16.6987 32 18.6616 30.0371 18.6616 27.6364H27.1545C28.352 27.6364 29.0527 26.1243 28.2553 25.2216H28.2539C27.0984 23.9144 26.0591 22.4488 25.2667 20.9091C25.2413 20.8113 25.1958 20.7199 25.1332 20.6406C24.2815 18.9098 23.7525 17.0934 23.7525 15.2727V11.6364C23.7525 7.43557 20.9672 3.94105 17.1672 2.71449C17.061 1.21077 15.8271 0 14.2979 0ZM14.2979 1.45455C15.11 1.45455 15.7525 2.09697 15.7525 2.90909V3.1946C15.7524 3.3559 15.806 3.51264 15.9047 3.64017C16.0034 3.76771 16.1418 3.85881 16.2979 3.89915C19.7456 4.78822 22.2979 7.90284 22.2979 11.6364V15.2727C22.2979 17.0386 22.7882 18.7373 23.4755 20.3636H7.75247C7.6561 20.3623 7.56042 20.3801 7.47099 20.416C7.38156 20.452 7.30016 20.5053 7.23153 20.573C7.16289 20.6406 7.1084 20.7213 7.0712 20.8102C7.034 20.8991 7.01484 20.9945 7.01484 21.0909C7.01484 21.1873 7.034 21.2827 7.0712 21.3716C7.1084 21.4605 7.16289 21.5412 7.23153 21.6088C7.30016 21.6765 7.38156 21.7299 7.47099 21.7658C7.56042 21.8017 7.6561 21.8195 7.75247 21.8182H24.119C24.96 23.3934 26.0044 24.8725 27.1644 26.1847C27.1932 26.2172 27.2049 26.1818 27.1545 26.1818H1.44139C1.39096 26.1818 1.40268 26.2172 1.43145 26.1847C2.69029 24.7606 3.84165 23.1555 4.71128 21.4261H4.70986C5.67738 19.5025 6.29793 17.4197 6.29793 15.2727V11.6364C6.29793 7.90284 8.85028 4.78822 12.2979 3.89915C12.4541 3.85881 12.5924 3.76771 12.6912 3.64017C12.7899 3.51264 12.8435 3.3559 12.8434 3.1946V2.90909C12.8434 2.09697 13.4858 1.45455 14.2979 1.45455ZM11.3888 27.6364H17.207C17.207 29.2501 15.9117 30.5455 14.2979 30.5455C12.6842 30.5455 11.3888 29.2501 11.3888 27.6364Z" fill="url(#paint0_linear_523_20641)"/>
<defs>
<linearGradient id="paint0_linear_523_20641" x1="0.000243996" y1="4.8855" x2="31.3064" y2="13.8344" gradientUnits="userSpaceOnUse">
<stop stop-color="white"/>
<stop offset="1" stop-color="#C66AE6"/>
</linearGradient>
</defs>
</svg>
