<svg width="35" height="35" viewBox="0 0 35 35" fill="none" xmlns="http://www.w3.org/2000/svg">
<path id="Vector" d="M33.9964 2.29677H27.8795V1.09898C27.8795 0.919398 27.8081 0.747175 27.6812 0.620193C27.5542 0.493212 27.382 0.421875 27.2024 0.421875H7.72895C7.54937 0.421875 7.37715 0.493212 7.25016 0.620193C7.12318 0.747175 7.05185 0.919398 7.05185 1.09898V2.29677H0.934914C0.755335 2.29677 0.583112 2.36811 0.456131 2.49509C0.32915 2.62207 0.257812 2.79429 0.257812 2.97387V9.55868C0.259963 11.4448 1.01022 13.253 2.34396 14.5866C3.6777 15.9203 5.48601 16.6703 7.37211 16.6723C7.42256 16.6683 7.47234 16.6583 7.5204 16.6425C8.08021 18.3522 9.1141 19.8678 10.5017 21.0128C11.8893 22.1578 13.5736 22.8851 15.3585 23.1102C15.2746 25.9147 14.6191 27.9135 13.4356 28.8913C13.0286 29.231 12.5373 29.4543 12.0136 29.5372H11.0657C11.0443 29.5404 11.023 29.5447 11.0021 29.5501C10.9546 29.5543 10.9079 29.5639 10.8626 29.5785C10.781 29.6032 10.7054 29.6445 10.6405 29.6997C10.6092 29.7249 10.5804 29.753 10.5545 29.7837C10.5262 29.8174 10.5015 29.8539 10.4807 29.8927C10.4591 29.9316 10.4416 29.9727 10.4285 30.0153C10.4189 30.0349 10.4103 30.055 10.4028 30.0755C10.3981 30.0992 10.4028 30.1216 10.4028 30.1432C10.4028 30.1649 10.3893 30.1886 10.3893 30.2109V33.8253C10.3893 34.0049 10.4606 34.1771 10.5876 34.3041C10.7146 34.4311 10.8868 34.5024 11.0664 34.5024H23.8616C24.0411 34.5024 24.2134 34.4311 24.3403 34.3041C24.4673 34.1771 24.5387 34.0049 24.5387 33.8253V30.4737C24.5859 30.3732 24.6065 30.2623 24.5984 30.1516C24.5904 30.0409 24.5541 29.9341 24.4929 29.8415C24.4317 29.7489 24.3477 29.6735 24.249 29.6227C24.1503 29.572 24.0402 29.5474 23.9293 29.5514C23.907 29.5454 23.8844 29.5407 23.8616 29.5372H22.9813C22.4576 29.4546 21.9662 29.2314 21.5594 28.8913C20.3752 27.9122 19.7197 25.912 19.6371 23.1C21.4088 22.864 23.0779 22.1328 24.4525 20.9905C25.8271 19.8482 26.8513 18.3411 27.4075 16.6425C27.4558 16.6583 27.5058 16.6683 27.5565 16.6723C29.4432 16.671 31.2523 15.9212 32.5866 14.5874C33.921 13.2535 34.6715 11.4447 34.6735 9.558V2.97387C34.6735 2.79429 34.6022 2.62207 34.4752 2.49509C34.3482 2.36811 34.176 2.29677 33.9964 2.29677ZM1.61202 9.558V3.65097H7.05185V13.7113C7.05494 14.2471 7.10341 14.7817 7.19674 15.3093C5.70142 15.2631 4.28267 14.6371 3.24047 13.5639C2.19826 12.4906 1.61429 11.054 1.61202 9.558ZM11.7469 33.1516V30.9226C11.8606 30.9172 11.9805 30.9084 12.1111 30.8914H22.8865C22.9908 30.905 23.0897 30.9144 23.1845 30.9205V33.1516H11.7469ZM20.2905 29.5372H14.7078C15.9476 28.2358 16.6173 26.105 16.7087 23.1908H18.289C18.3811 26.105 19.0508 28.2358 20.2905 29.5372ZM26.5253 13.7113C26.5229 15.8656 25.6662 17.9309 24.1429 19.4542C22.6196 20.9774 20.5543 21.8342 18.4001 21.8366H16.5313C14.377 21.8342 12.3117 20.9774 10.7884 19.4542C9.26517 17.9309 8.40838 15.8656 8.40605 13.7113V1.77608H26.5253V13.7113ZM33.3193 9.558C33.317 11.054 32.7331 12.4906 31.6909 13.5639C30.6487 14.6371 29.2299 15.2631 27.7346 15.3093C27.8279 14.7817 27.8764 14.2471 27.8795 13.7113V3.65097H33.3193V9.558ZM14.5636 12.2102L14.0896 14.8137C14.0669 14.938 14.0793 15.0662 14.1257 15.1839C14.172 15.3015 14.2503 15.4038 14.3518 15.4792C14.4533 15.5546 14.5738 15.6001 14.6998 15.6105C14.8258 15.6209 14.9522 15.5959 15.0647 15.5382L17.4203 14.3316L19.7502 15.5876C19.8614 15.6475 19.9871 15.6752 20.1131 15.6674C20.2392 15.6596 20.3605 15.6168 20.4635 15.5437C20.5665 15.4706 20.6469 15.3701 20.6958 15.2537C20.7447 15.1372 20.76 15.0095 20.7401 14.8848L20.3203 12.2718L22.2358 10.4437C22.3272 10.3564 22.3922 10.2453 22.4237 10.123C22.4552 10.0006 22.4519 9.87193 22.414 9.7514C22.3762 9.63088 22.3054 9.52334 22.2097 9.44094C22.1139 9.35855 21.997 9.30457 21.8722 9.28513L19.2573 8.87887L18.1116 6.49276C18.0568 6.37897 17.9713 6.28278 17.8647 6.21506C17.758 6.14734 17.6346 6.11078 17.5083 6.10952C17.3839 6.11537 17.2629 6.15234 17.1564 6.21704C17.05 6.28175 16.9614 6.37212 16.8989 6.4799L15.6984 8.83892L13.0753 9.19169C12.95 9.20843 12.8319 9.2599 12.7344 9.34029C12.6368 9.42068 12.5637 9.52678 12.5234 9.64656C12.483 9.76635 12.4769 9.89504 12.5059 10.0181C12.5349 10.1411 12.5978 10.2536 12.6874 10.3428L14.5636 12.2102ZM16.2327 10.1335C16.3415 10.1189 16.4451 10.0781 16.5347 10.0145C16.6242 9.95093 16.6969 9.86653 16.7466 9.76858L17.4833 8.31417L18.1895 9.78415C18.237 9.8831 18.3079 9.96901 18.396 10.0345C18.4841 10.0999 18.5868 10.143 18.6953 10.1599L20.3068 10.4118L19.1266 11.5372C19.0468 11.6128 18.9866 11.7066 18.9512 11.8107C18.9158 11.9147 18.9063 12.0258 18.9235 12.1344L19.1821 13.7445L17.7467 12.9706C17.6478 12.9173 17.5373 12.8893 17.425 12.8893C17.3177 12.8895 17.2119 12.9151 17.1163 12.9638L15.6652 13.7086L15.9578 12.1046C15.9775 11.9972 15.9711 11.8866 15.9389 11.7823C15.9067 11.6779 15.8498 11.5829 15.7729 11.5053L14.6178 10.3543L16.2327 10.1335Z" fill="url(#paint0_linear_496_11780)"/>
<defs>
<linearGradient id="paint0_linear_496_11780" x1="0.257812" y1="5.62501" x2="37.1637" y2="17.5467" gradientUnits="userSpaceOnUse">
<stop stop-color="white"/>
<stop offset="1" stop-color="#C66AE6"/>
</linearGradient>
</defs>
</svg>
