<svg width="110" height="110" viewBox="0 0 110 110" fill="none" xmlns="http://www.w3.org/2000/svg">
  <path d="M54.999 110H6.70634C4.92745 110 3.22142 109.293 1.96355 108.036C0.705685 106.778 -0.000976562 105.072 -0.000976562 103.293V6.70732C-0.000976562 4.92843 0.705685 3.22239 1.96355 1.96453C3.22142 0.706662 4.92745 0 6.70634 0H54.999C56.7779 0 58.484 0.706662 59.7418 1.96453C60.9997 3.22239 61.7064 4.92843 61.7064 6.70732V103.293C61.7064 105.072 60.9997 106.778 59.7418 108.036C58.484 109.293 56.7779 110 54.999 110ZM6.70634 2.68293C5.63901 2.68293 4.61539 3.10692 3.86067 3.86164C3.10595 4.61636 2.68195 5.63998 2.68195 6.70732V103.293C2.68195 104.36 3.10595 105.384 3.86067 106.138C4.61539 106.893 5.63901 107.317 6.70634 107.317H54.999C56.0664 107.317 57.09 106.893 57.8447 106.138C58.5994 105.384 59.0234 104.36 59.0234 103.293V6.70732C59.0234 5.63998 58.5994 4.61636 57.8447 3.86164C57.09 3.10692 56.0664 2.68293 54.999 2.68293H6.70634Z" fill="#C3A0E9"/>
  <path d="M52.3162 93.9024H9.38938C8.32205 93.9024 7.29843 93.4785 6.54371 92.7237C5.78899 91.969 5.36499 90.9454 5.36499 89.8781V14.7561C5.36499 13.6887 5.78899 12.6651 6.54371 11.9104C7.29843 11.1557 8.32205 10.7317 9.38938 10.7317H52.3162C53.3836 10.7317 54.4072 11.1557 55.1619 11.9104C55.9166 12.6651 56.3406 13.6887 56.3406 14.7561V89.8781C56.3406 90.9454 55.9166 91.969 55.1619 92.7237C54.4072 93.4785 53.3836 93.9024 52.3162 93.9024ZM9.38938 13.4146C9.0336 13.4146 8.6924 13.5559 8.44082 13.8075C8.18925 14.0591 8.04792 14.4003 8.04792 14.7561V89.8781C8.04792 90.2338 8.18925 90.575 8.44082 90.8266C8.6924 91.0782 9.0336 91.2195 9.38938 91.2195H52.3162C52.672 91.2195 53.0132 91.0782 53.2648 90.8266C53.5164 90.575 53.6577 90.2338 53.6577 89.8781V14.7561C53.6577 14.4003 53.5164 14.0591 53.2648 13.8075C53.0132 13.5559 52.672 13.4146 52.3162 13.4146H9.38938Z" fill="#C3A0E9"/>
  <path d="M34.5416 8.04877H22.4684C22.1126 8.04877 21.7714 7.90744 21.5199 7.65587C21.2683 7.40429 21.127 7.06309 21.127 6.70731C21.127 6.35153 21.2683 6.01032 21.5199 5.75875C21.7714 5.50718 22.1126 5.36584 22.4684 5.36584H34.5416C34.8974 5.36584 35.2386 5.50718 35.4902 5.75875C35.7417 6.01032 35.8831 6.35153 35.8831 6.70731C35.8831 7.06309 35.7417 7.40429 35.4902 7.65587C35.2386 7.90744 34.8974 8.04877 34.5416 8.04877Z" fill="#C3A0E9"/>
  <path d="M39.237 8.04877C39.9778 8.04877 40.5784 7.44818 40.5784 6.70731C40.5784 5.96644 39.9778 5.36584 39.237 5.36584C38.4961 5.36584 37.8955 5.96644 37.8955 6.70731C37.8955 7.44818 38.4961 8.04877 39.237 8.04877Z" fill="#C3A0E9"/>
  <path d="M30.8532 105.976C29.7919 105.976 28.7545 105.661 27.8721 105.071C26.9896 104.482 26.3019 103.644 25.8958 102.663C25.4896 101.683 25.3834 100.604 25.5904 99.5629C25.7975 98.522 26.3085 97.5659 27.0589 96.8155C27.8094 96.0651 28.7655 95.554 29.8063 95.347C30.8472 95.14 31.9261 95.2462 32.9066 95.6524C33.8871 96.0585 34.7251 96.7462 35.3147 97.6286C35.9043 98.5111 36.219 99.5485 36.219 100.61C36.219 102.033 35.6537 103.398 34.6474 104.404C33.6411 105.41 32.2763 105.976 30.8532 105.976ZM30.8532 97.9268C30.3225 97.9268 29.8038 98.0842 29.3626 98.379C28.9214 98.6738 28.5775 99.0928 28.3745 99.583C28.1714 100.073 28.1183 100.613 28.2218 101.133C28.3253 101.654 28.5808 102.132 28.956 102.507C29.3313 102.882 29.8093 103.138 30.3297 103.241C30.8502 103.345 31.3896 103.292 31.8799 103.088C32.3701 102.885 32.7891 102.542 33.0839 102.1C33.3787 101.659 33.5361 101.14 33.5361 100.61C33.5361 99.8982 33.2534 99.2158 32.7503 98.7126C32.2471 98.2095 31.5647 97.9268 30.8532 97.9268Z" fill="#C3A0E9"/>
  <path d="M103.292 110H54.9997C54.6439 110 54.3027 109.859 54.0511 109.607C53.7995 109.356 53.6582 109.014 53.6582 108.659C53.6582 108.303 53.7995 107.962 54.0511 107.71C54.3027 107.458 54.6439 107.317 54.9997 107.317C56.067 107.317 57.0906 106.893 57.8453 106.138C58.6001 105.384 59.0241 104.36 59.0241 103.293V49.6342C59.0241 49.2784 59.1654 48.9372 59.417 48.6856C59.6685 48.4341 60.0097 48.2927 60.3655 48.2927H103.292C105.071 48.2927 106.777 48.9994 108.035 50.2573C109.293 51.5151 110 53.2212 110 55V103.293C110 105.072 109.293 106.778 108.035 108.036C106.777 109.293 105.071 110 103.292 110ZM60.3655 107.317H103.292C104.36 107.317 105.383 106.893 106.138 106.138C106.893 105.384 107.317 104.36 107.317 103.293V55C107.317 53.9327 106.893 52.9091 106.138 52.1544C105.383 51.3997 104.36 50.9757 103.292 50.9757H61.707V103.293C61.707 104.744 61.2363 106.156 60.3655 107.317Z" fill="#C3A0E9"/>
  <path d="M95.243 104.634H60.3649C60.0091 104.634 59.6679 104.493 59.4163 104.241C59.1648 103.99 59.0234 103.649 59.0234 103.293V55C59.0234 54.6443 59.1648 54.303 59.4163 54.0515C59.6679 53.7999 60.0091 53.6586 60.3649 53.6586H95.243C96.3103 53.6586 97.3339 54.0826 98.0886 54.8373C98.8434 55.592 99.2673 56.6156 99.2673 57.683V100.61C99.2673 101.677 98.8434 102.701 98.0886 103.455C97.3339 104.21 96.3103 104.634 95.243 104.634ZM61.7064 101.951H95.243C95.5987 101.951 95.9399 101.81 96.1915 101.558C96.4431 101.307 96.5844 100.966 96.5844 100.61V57.683C96.5844 57.3272 96.4431 56.986 96.1915 56.7344C95.9399 56.4828 95.5987 56.3415 95.243 56.3415H61.7064V101.951Z" fill="#C3A0E9"/>
  <path d="M103.293 84.1769C102.937 84.1769 102.596 84.0355 102.344 83.784C102.093 83.5324 101.951 83.1912 101.951 82.8354V70.7622C101.951 70.4065 102.093 70.0653 102.344 69.8137C102.596 69.5621 102.937 69.4208 103.293 69.4208C103.648 69.4208 103.99 69.5621 104.241 69.8137C104.493 70.0653 104.634 70.4065 104.634 70.7622V82.8354C104.634 83.1912 104.493 83.5324 104.241 83.784C103.99 84.0355 103.648 84.1769 103.293 84.1769Z" fill="#C3A0E9"/>
  <path d="M103.293 88.872C104.034 88.872 104.634 88.2714 104.634 87.5306C104.634 86.7897 104.034 86.1891 103.293 86.1891C102.552 86.1891 101.951 86.7897 101.951 87.5306C101.951 88.2714 102.552 88.872 103.293 88.872Z" fill="#C3A0E9"/>
  <path d="M103.291 40.2439C103.115 40.2484 102.941 40.2117 102.781 40.1366C102.536 40.036 102.327 39.8651 102.179 39.6454C102.031 39.4258 101.951 39.1673 101.95 38.9025C101.95 29.2964 98.1337 20.0839 91.3412 13.2914C84.5487 6.4989 75.3362 2.68293 65.7301 2.68293C65.3744 2.68293 65.0331 2.5416 64.7816 2.29002C64.53 2.03845 64.3887 1.69724 64.3887 1.34146C64.3887 0.985686 64.53 0.644479 64.7816 0.392906C65.0331 0.141333 65.3744 2.0137e-07 65.7301 2.0137e-07C75.5096 -0.000994255 84.9308 3.68134 92.1176 10.3138C99.3043 16.9462 103.73 26.0421 104.512 35.7903L107.705 32.5842C107.957 32.3316 108.3 32.1896 108.657 32.1896C109.014 32.1896 109.357 32.3316 109.609 32.5842C109.862 32.8368 110.004 33.1794 110.004 33.5366C110.004 33.8938 109.862 34.2364 109.609 34.489L104.244 39.8549C104.118 39.9792 103.97 40.0776 103.806 40.1443C103.643 40.2111 103.468 40.2449 103.291 40.2439Z" fill="#C3A0E9"/>
  <path d="M103.292 40.2439C103.115 40.2449 102.94 40.2111 102.777 40.1443C102.613 40.0776 102.465 39.9792 102.339 39.8549L96.9736 34.489C96.721 34.2364 96.5791 33.8938 96.5791 33.5366C96.5791 33.1794 96.721 32.8368 96.9736 32.5842C97.2262 32.3315 97.5688 32.1896 97.9261 32.1896C98.2833 32.1896 98.6259 32.3315 98.8785 32.5842L104.244 37.95C104.37 38.0747 104.47 38.2231 104.538 38.3866C104.606 38.55 104.641 38.7254 104.641 38.9024C104.641 39.0795 104.606 39.2549 104.538 39.4183C104.47 39.5818 104.37 39.7302 104.244 39.8549C104.119 39.9792 103.97 40.0776 103.807 40.1443C103.643 40.2111 103.468 40.2449 103.292 40.2439Z" fill="#C3A0E9"/>
</svg>
