<svg xmlns="http://www.w3.org/2000/svg" width="19" height="21" viewBox="0 0 19 21" fill="none">
  <path d="M9.5 0.187164C5.8373 0.187164 2.85 3.04583 2.85 6.5508C2.85 8.74185 4.01895 10.6879 5.78906 11.8349C2.40098 13.2269 0 16.4443 0 20.1872H1.9C1.9 16.1602 5.2918 12.9144 9.5 12.9144C13.7082 12.9144 17.1 16.1602 17.1 20.1872H19C19 16.4443 16.599 13.2269 13.2109 11.8349C14.9811 10.6879 16.15 8.74185 16.15 6.5508C16.15 3.04583 13.1627 0.187164 9.5 0.187164ZM9.5 2.00535C12.1348 2.00535 14.25 4.02949 14.25 6.5508C14.25 9.07211 12.1348 11.0963 9.5 11.0963C6.86523 11.0963 4.75 9.07211 4.75 6.5508C4.75 4.02949 6.86523 2.00535 9.5 2.00535Z" fill="white" fill-opacity="0.5"/>
</svg>