<svg width="246" height="96" viewBox="0 0 246 96" fill="none" xmlns="http://www.w3.org/2000/svg">
<g clip-path="url(#clip0_548_2)">
<path d="M60.5 26.9001H81.1L66 68.9001H49.4L51 64.5001L58.1 44.6001L37.5 65.2001H32.6L26.6 46.3001L18.5 68.9001H1.9L0 67.2001L0.5 66.9001C1.5 66.3001 2.5 65.5001 3.4 64.6001L15.4 31.2001L14.3 27.0001H33.5L39.3 46.7001L60.3 27.0001H60.5V26.9001Z" fill="#111111"/>
<path d="M94.7996 59.9H140.1L136.6 68.9H74.9996L73.0996 67.2L73.5996 66.9C73.5996 66.9 74.7996 66.3 76.4996 64.5L81.6996 49.9L88.3996 31.1L87.2996 27H154L140.2 38.8C140.2 38.8 137.1 35.9 134.9 35.9H103.3L101.7 40.3L100.6 43.5H129.1L122.9 52.4H97.2996L94.5996 60H94.7996V59.9Z" fill="#111111"/>
<path d="M165.8 68.9001H222.6C228.3 68.7001 233.4 63.9001 236.2 56.4001L237.7 52.4001L235.4 49.1L240.3 45.3L245.3 30.8C245.6 29.9 245.6 29 245.3 28.1C245 27.4 244.6 26.9 244.1 26.8H183.1L182 30.1L179.9 35.9001H226.6V36.4001L225.6 39.3L224.2 43.3H201.1L195.5 52.2001H221L218.3 59.7001H186.4C184.4 59.7001 181.1 55.9001 181.1 55.9001L180.7 55.4001" fill="#111111"/>
<path d="M130 95.8001L189.9 43.3H150.4L130 95.8001Z" fill="#BA00FB"/>
<path d="M189.8 0L129.9 52.5H169.4L189.8 0Z" fill="#BA00FB"/>
</g>
<defs>
<clipPath id="clip0_548_2">
<rect width="245.52" height="95.8" fill="white"/>
</clipPath>
</defs>
</svg>
