<svg width="430" height="219" viewBox="0 0 430 219" fill="none" xmlns="http://www.w3.org/2000/svg">
<g filter="url(#filter0_d_1361_17)">
<path fill-rule="evenodd" clip-rule="evenodd" d="M386.671 6L415.226 22.4804L420 30.9233V62.0775L415.226 70.5204L386.671 87.0008H379.666L351.111 70.5204L346.336 62.0775V30.9233L351.111 22.4804L379.666 6H386.671ZM355.793 62.2987L378.467 75.3871V49.284L355.793 36.8776V62.2987ZM359.83 28.3425L383.15 41.0991V41.1175L406.248 28.195L383.168 14.8669L359.83 28.3425ZM387.887 75.3871L410.562 62.2987V62.2802V36.5642L387.887 49.2471V75.3871ZM10 13.909L15.7884 8.50775H50.7953L56.6206 13.909V30.2972H44.9516V19.384H21.6321V73.8577H44.9516V52.0867H33.3195V41.1735H50.7953L56.6206 46.6301V79.3143L50.7953 84.734H15.7884L10 79.3143V13.909ZM79.9221 24.8406L97.3979 8.50775H109.03L126.561 24.8406V84.734H114.874V62.9445H91.5542V84.734H79.9221V24.8406ZM91.5542 52.0682H114.874V30.2788L103.242 19.3656L91.5542 30.2788V52.0682ZM155.632 8.50775L149.843 13.909V79.3143L155.632 84.734H190.62L196.464 79.3143V62.9445H184.777V73.8577H161.475V19.384H184.777V30.2972H196.464V13.909L190.62 8.50775H155.632ZM231.397 41.1551H254.698V8.50775H266.386V84.734H254.698V52.0682H231.397V84.734H219.765V8.50775H231.397V41.1551ZM307.144 8.50775L289.668 24.8406V84.734H301.301V62.9445H324.62V84.734H336.308V24.8406L318.776 8.50775H307.144ZM324.62 52.0682H301.301V30.2788L312.988 19.3656L324.62 30.2788V52.0682ZM10 108.292L15.7884 102.872H50.7953L56.6206 108.292V124.662H44.9516V113.749H21.6321V168.241H44.9516V146.451H33.3195V135.538H50.7953L56.6206 140.995V173.697L50.7953 179.117H15.7884V179.099L10 173.697V108.292ZM97.3979 102.872L79.9221 119.205V179.099H91.5542V157.309H114.874V179.099H126.561V119.205L109.03 102.872H97.3979ZM114.874 146.451H91.5542V124.662L103.242 113.749L114.874 124.662V146.451ZM152.756 102.872H164.388V168.241H193.551V179.099H152.756V102.872ZM237.222 102.872L219.746 119.205V179.099H231.378V157.309H254.698V179.099H266.385V119.205L248.854 102.872H237.222ZM254.698 146.451H231.378V124.662L243.066 113.749L254.698 124.662V146.451ZM312.988 130.082L324.62 119.205V102.872H336.308V124.662L324.62 135.538H324.565L318.777 140.995L336.308 157.309V179.099H324.62V162.766L312.988 151.908L301.301 162.766V179.099H289.687V157.309L301.301 146.451H301.356L307.145 140.995L289.687 124.662V102.872H301.301V119.205L312.988 130.082ZM394.542 135.538H371.222V102.872H359.59V140.995L365.397 146.451H377.066V179.099H388.698V146.451H400.385L406.229 140.995V102.872H394.542V135.538Z" fill="url(#paint0_linear_1361_17)"/>
</g>
<path d="M324.03 219V197H340.652C341.467 197 342.211 197.204 342.883 197.611C343.576 198.019 344.126 198.569 344.533 199.261C344.961 199.933 345.175 200.687 345.175 201.522V205.647C345.175 205.912 345.154 206.167 345.114 206.411C345.093 206.635 345.042 206.849 344.961 207.053C345.266 207.44 345.521 207.888 345.725 208.397C345.928 208.906 346.03 209.416 346.03 209.925V214.478C346.03 215.293 345.816 216.046 345.389 216.739C344.981 217.431 344.431 217.981 343.739 218.389C343.066 218.796 342.313 219 341.477 219H324.03ZM328.766 214.233H341.233V210.2H328.766V214.233ZM328.766 205.433H340.377V201.767H328.766V205.433Z" fill="url(#paint1_linear_1361_17)"/>
<path d="M349.423 219V197H369.742V201.767H354.22V205.617H366.717V210.383H354.22V214.233H369.742V219H349.423Z" fill="url(#paint2_linear_1361_17)"/>
<path d="M380.273 219V201.767H371.656V197H393.656V201.767H385.039V219H380.273Z" fill="url(#paint3_linear_1361_17)"/>
<path d="M396.002 219V201.522C396.002 200.687 396.206 199.933 396.613 199.261C397.021 198.569 397.571 198.019 398.263 197.611C398.956 197.204 399.71 197 400.524 197H413.449C414.285 197 415.038 197.204 415.711 197.611C416.403 198.019 416.953 198.569 417.361 199.261C417.788 199.933 418.002 200.687 418.002 201.522V219H413.205V211.911H400.738V219H396.002ZM400.738 207.144H413.205V201.767H400.738V207.144Z" fill="url(#paint4_linear_1361_17)"/>
<defs>
<filter id="filter0_d_1361_17" x="0.2" y="0.2" width="429.6" height="192.717" filterUnits="userSpaceOnUse" color-interpolation-filters="sRGB">
<feFlood flood-opacity="0" result="BackgroundImageFix"/>
<feColorMatrix in="SourceAlpha" type="matrix" values="0 0 0 0 0 0 0 0 0 0 0 0 0 0 0 0 0 0 127 0" result="hardAlpha"/>
<feOffset dy="4"/>
<feGaussianBlur stdDeviation="4.9"/>
<feComposite in2="hardAlpha" operator="out"/>
<feColorMatrix type="matrix" values="0 0 0 0 0.227451 0 0 0 0 0.121569 0 0 0 0 0.313726 0 0 0 0.5 0"/>
<feBlend mode="normal" in2="BackgroundImageFix" result="effect1_dropShadow_1361_17"/>
<feBlend mode="normal" in="SourceGraphic" in2="effect1_dropShadow_1361_17" result="shape"/>
</filter>
<linearGradient id="paint0_linear_1361_17" x1="10" y1="32.4301" x2="318.487" y2="266.139" gradientUnits="userSpaceOnUse">
<stop stop-color="#D4B2F9"/>
<stop offset="1" stop-color="#C15CFF"/>
</linearGradient>
<linearGradient id="paint1_linear_1361_17" x1="322" y1="193.802" x2="391.058" y2="250.772" gradientUnits="userSpaceOnUse">
<stop stop-color="white"/>
<stop offset="1" stop-color="#C66AE6"/>
</linearGradient>
<linearGradient id="paint2_linear_1361_17" x1="322" y1="193.802" x2="391.058" y2="250.772" gradientUnits="userSpaceOnUse">
<stop stop-color="white"/>
<stop offset="1" stop-color="#C66AE6"/>
</linearGradient>
<linearGradient id="paint3_linear_1361_17" x1="322" y1="193.802" x2="391.058" y2="250.772" gradientUnits="userSpaceOnUse">
<stop stop-color="white"/>
<stop offset="1" stop-color="#C66AE6"/>
</linearGradient>
<linearGradient id="paint4_linear_1361_17" x1="322" y1="193.802" x2="391.058" y2="250.772" gradientUnits="userSpaceOnUse">
<stop stop-color="white"/>
<stop offset="1" stop-color="#C66AE6"/>
</linearGradient>
</defs>
</svg>
