<?xml version="1.0" encoding="UTF-8"?>
<svg width="223px" height="42px" viewBox="0 0 223 42" version="1.1" xmlns="http://www.w3.org/2000/svg" xmlns:xlink="http://www.w3.org/1999/xlink">
    <title>me3-logo</title>
    <g id="Page-1" stroke="none" stroke-width="1" fill="none" fill-rule="evenodd">
        <g id="me3-home-copy" transform="translate(-72.000000, -31.000000)" fill-rule="nonzero">
            <g id="me3-logo" transform="translate(72.000000, 31.000000)">
                <path d="M60.3806127,0 L81,0 L65.902479,41.9905277 L49.3179373,41.9905277 L50.8996726,37.5764547 L58.022217,17.7225981 L37.4501871,38.3058187 L32.5913237,38.3058187 L26.5579981,19.4086604 L18.4409495,42 L1.85640786,42 L0,40.2571042 L0.520930776,39.9824087 C1.53437792,39.3951286 2.50046773,38.6184032 3.41920019,37.6427605 L3.43814312,37.5764547 L15.419551,4.20568336 L14.3398036,0.00947225981 L33.5384705,0.00947225981 L39.3539523,19.7307172 L60.3806127,0.00947225981 L60.3806127,0.00947225981 L60.3806127,0 Z" id="Path" fill="#EEEEEE"></path>
                <path d="M94.6479383,33.0338142 L142.60834,33.0338142 L136.420512,42 L74.8544563,42 L73,40.25789 L73.5203831,39.9833183 C73.5203831,39.9833183 74.7503796,39.339495 76.4345287,37.5784491 L76.4345287,37.5784491 L81.6762061,22.9409378 L88.3749562,4.16591524 L87.3247284,0.0189359784 L106.588366,0.0189359784 C108.896975,0.0189359784 111.338045,0.0189359784 113.845345,0.0189359784 L130.09076,0.0189359784 L154,0 L140.611961,12.9900812 L140.507885,12.8007214 C139.107581,10.3106402 137.073356,8.93778179 134.916131,8.93778179 L103.305221,8.93778179 L101.715687,13.3782687 L100.580306,16.5405771 C101.573765,16.5405771 102.113071,16.5405771 104.819063,16.5405771 C107.506132,16.5500451 109.947202,16.5405771 112.388272,16.5405771 C121.253709,16.587917 128.491765,16.5405771 129.125686,16.5405771 L122.928396,25.4783589 L97.3633921,25.4783589 L94.6479383,33.0338142 L94.6479383,33.0338142 Z" id="Path" fill="#EEEEEE"></path>
                <path d="M222.752984,1.28764653 C222.496468,0.57754734 222.06894,0.123083859 221.584409,0 L162.63313,0 L160.419488,3.20018034 L156.419732,8.96618575 L203.884775,8.96618575 C203.97028,8.99458972 204.036784,9.06086564 204.084287,9.1839495 C204.141291,9.33543733 204.13179,9.51532913 204.084287,9.66681695 L203.048721,12.5545537 L201.62363,16.5216411 L178.53715,16.5216411 L172.92229,25.4499549 L172.874787,25.5256988 L198.383922,25.5256988 L195.685749,33.0338142 L163.820706,33.0338142 C161.787576,32.9012624 159.868453,31.5662759 158.547868,29.1992786 L158.443362,29.0099188 L154.282095,33.0338142 L145,42 L199.685505,42 C199.828015,42 199.970524,41.981064 200.113033,41.981064 C205.775396,41.7538323 210.953228,37.0293057 213.727406,29.5022543 L215.190499,25.5256988 L212.881851,22.2024346 L217.736663,18.4436429 L222.771985,3.97655546 C223.076005,3.12443643 223.076005,2.13029757 222.771985,1.28764653 L222.752984,1.28764653 Z" id="Path" fill="#BA00FB"></path>
            </g>
        </g>
    </g>
</svg>